<?xml version="1.0" encoding="utf-8"?>
<!-- Generator: Adobe Illustrator 23.0.1, SVG Export Plug-In . SVG Version: 6.00 Build 0)  -->
<svg version="1.1" id="Layer_1" xmlns="http://www.w3.org/2000/svg" xmlns:xlink="http://www.w3.org/1999/xlink" x="0px" y="0px"
	 viewBox="0 0 1280 800" style="enable-background:new 0 0 1280 800;" xml:space="preserve">
<style type="text/css">
	.st0{clip-path:url(#XMLID_3_);}
	.st1{fill:#DB1A6D;}
	.st2{fill:#FFFFFF;}
	.st3{clip-path:url(#XMLID_3_);fill:none;stroke:#FFFFFF;stroke-linejoin:round;stroke-miterlimit:10;}
	.st4{opacity:0.29;fill:#00C46D;}
	.st5{opacity:0.51;fill:#00C46D;}
	.st6{opacity:0.75;fill:#00C46D;}
	.st7{opacity:0.54;fill:#00C46D;}
	.st8{opacity:0.36;fill:#00C46D;}
	.st9{opacity:0.5;fill:#00C46D;}
	.st10{opacity:5.000000e-02;fill:#00C46D;}
	.st11{opacity:0.55;fill:#00C46D;}
	.st12{opacity:0.7;fill:#00C46D;}
	.st13{opacity:0.64;fill:#00C46D;}
	.st14{opacity:8.000000e-02;fill:#00C46D;}
	.st15{opacity:0.45;fill:#00C46D;}
	.st16{opacity:0.68;fill:#00C46D;}
	.st17{opacity:0.99;fill:#00C46D;}
	.st18{opacity:0.2;fill:#00C46D;}
	.st19{opacity:0.4;fill:#00C46D;}
	.st20{opacity:0.21;fill:#00C46D;}
	.st21{opacity:0.56;fill:#00C46D;}
	.st22{opacity:0.66;fill:#00C46D;}
	.st23{opacity:0.83;fill:#00C46D;}
	.st24{opacity:0.34;fill:#00C46D;}
	.st25{opacity:0.37;fill:#00C46D;}
	.st26{opacity:0.23;fill:#00C46D;}
	.st27{opacity:0.6;fill:#00C46D;}
	.st28{opacity:0.11;fill:#00C46D;}
	.st29{opacity:0.15;fill:#00C46D;}
	.st30{opacity:0.95;fill:#00C46D;}
	.st31{opacity:0.26;fill:#00C46D;}
	.st32{opacity:0.33;fill:#00C46D;}
	.st33{opacity:0.76;fill:#00C46D;}
	.st34{opacity:0.93;fill:#00C46D;}
	.st35{opacity:0.53;fill:#00C46D;}
	.st36{opacity:0.87;fill:#00C46D;}
	.st37{opacity:0;fill:#00C46D;}
	.st38{opacity:0.78;fill:#00C46D;}
	.st39{opacity:0.91;fill:#00C46D;}
	.st40{opacity:0.62;fill:#00C46D;}
	.st41{opacity:0.81;fill:#00C46D;}
	.st42{opacity:0.85;fill:#00C46D;}
	.st43{opacity:0.41;fill:#00C46D;}
	.st44{clip-path:url(#XMLID_4_);}
	.st45{fill:#F2D32D;}
	.st46{clip-path:url(#XMLID_4_);fill:none;stroke:#FFFFFF;stroke-miterlimit:10;}
	.st47{opacity:0.81;fill:#E538FF;}
	.st48{opacity:0.4;fill:#E538FF;}
	.st49{opacity:0.64;fill:#E538FF;}
	.st50{opacity:0.85;fill:#E538FF;}
	.st51{opacity:0.91;fill:#E538FF;}
	.st52{opacity:0.49;fill:#E538FF;}
	.st53{opacity:0.44;fill:#E538FF;}
	.st54{opacity:0.93;fill:#E538FF;}
	.st55{opacity:0.29;fill:#E538FF;}
	.st56{opacity:0.51;fill:#E538FF;}
	.st57{opacity:0.41;fill:#E538FF;}
	.st58{opacity:0.23;fill:#E538FF;}
	.st59{opacity:0.24;fill:#E538FF;}
	.st60{opacity:0.96;fill:#E538FF;}
	.st61{opacity:0.26;fill:#E538FF;}
	.st62{opacity:0.68;fill:#E538FF;}
	.st63{opacity:0.43;fill:#E538FF;}
	.st64{opacity:0.79;fill:#E538FF;}
	.st65{opacity:0.46;fill:#E538FF;}
	.st66{fill:#E538FF;}
	.st67{opacity:0.45;fill:#E538FF;}
	.st68{opacity:0.32;fill:#E538FF;}
	.st69{opacity:0.16;fill:#E538FF;}
	.st70{opacity:0.8;fill:#E538FF;}
	.st71{opacity:0.69;fill:#E538FF;}
	.st72{opacity:0.71;fill:#E538FF;}
	.st73{opacity:0.13;fill:#E538FF;}
	.st74{opacity:0.27;fill:#E538FF;}
	.st75{opacity:0.33;fill:#E538FF;}
	.st76{opacity:0.15;fill:#E538FF;}
	.st77{opacity:8.000000e-02;fill:#E538FF;}
	.st78{opacity:0.53;fill:#E538FF;}
	.st79{opacity:0.84;fill:#E538FF;}
	.st80{opacity:0.22;fill:#E538FF;}
	.st81{opacity:0.86;fill:#E538FF;}
	.st82{opacity:0.48;fill:#E538FF;}
	.st83{opacity:0.99;fill:#E538FF;}
	.st84{opacity:3.000000e-02;fill:#E538FF;}
	.st85{opacity:0.25;fill:#E538FF;}
	.st86{opacity:0.67;fill:#E538FF;}
	.st87{opacity:6.000000e-02;fill:#E538FF;}
	.st88{opacity:0.54;fill:#E538FF;}
	.st89{opacity:0.57;fill:#E538FF;}
	.st90{opacity:0.72;fill:#E538FF;}
	.st91{clip-path:url(#XMLID_5_);fill:#1F97CC;}
	.st92{clip-path:url(#XMLID_5_);fill:none;stroke:#FFFFFD;stroke-miterlimit:10;}
	.st93{clip-path:url(#XMLID_5_);}
	.st94{opacity:0.66;fill:#FF75FF;}
	.st95{opacity:0.62;fill:#FF75FF;}
	.st96{opacity:0.81;fill:#FF75FF;}
	.st97{opacity:0.4;fill:#FF75FF;}
	.st98{opacity:0.64;fill:#FF75FF;}
	.st99{opacity:0.85;fill:#FF75FF;}
	.st100{opacity:0.44;fill:#FF75FF;}
	.st101{opacity:0.93;fill:#FF75FF;}
	.st102{opacity:0.63;fill:#FF75FF;}
	.st103{opacity:0.61;fill:#FF75FF;}
	.st104{opacity:0.29;fill:#FF75FF;}
	.st105{opacity:0.51;fill:#FF75FF;}
	.st106{opacity:0.41;fill:#FF75FF;}
	.st107{opacity:0.23;fill:#FF75FF;}
	.st108{opacity:0.24;fill:#FF75FF;}
	.st109{opacity:0.96;fill:#FF75FF;}
	.st110{opacity:0.26;fill:#FF75FF;}
	.st111{opacity:0.68;fill:#FF75FF;}
	.st112{opacity:0.43;fill:#FF75FF;}
	.st113{opacity:0.79;fill:#FF75FF;}
	.st114{opacity:0.46;fill:#FF75FF;}
	.st115{fill:#FF75FF;}
	.st116{opacity:0.45;fill:#FF75FF;}
	.st117{opacity:0.32;fill:#FF75FF;}
	.st118{opacity:0.16;fill:#FF75FF;}
	.st119{opacity:0.74;fill:#FF75FF;}
	.st120{opacity:0.75;fill:#FF75FF;}
	.st121{opacity:0.5;fill:#FF75FF;}
	.st122{opacity:0.37;fill:#FF75FF;}
	.st123{opacity:0.31;fill:#FF75FF;}
	.st124{opacity:0.49;fill:#FF75FF;}
	.st125{opacity:0.69;fill:#FF75FF;}
	.st126{opacity:0.71;fill:#FF75FF;}
	.st127{opacity:0.13;fill:#FF75FF;}
	.st128{opacity:0.27;fill:#FF75FF;}
	.st129{opacity:0.33;fill:#FF75FF;}
	.st130{opacity:0.15;fill:#FF75FF;}
	.st131{opacity:8.000000e-02;fill:#FF75FF;}
	.st132{opacity:0.19;fill:#FF75FF;}
	.st133{opacity:0.53;fill:#FF75FF;}
	.st134{opacity:0.84;fill:#FF75FF;}
	.st135{opacity:0.22;fill:#FF75FF;}
	.st136{opacity:0.86;fill:#FF75FF;}
	.st137{opacity:0.48;fill:#FF75FF;}
	.st138{opacity:0.99;fill:#FF75FF;}
	.st139{opacity:3.000000e-02;fill:#FF75FF;}
	.st140{opacity:0.55;fill:#FF75FF;}
	.st141{opacity:0.67;fill:#FF75FF;}
	.st142{opacity:6.000000e-02;fill:#FF75FF;}
	.st143{clip-path:url(#XMLID_6_);fill:#5EFFA2;}
	.st144{clip-path:url(#XMLID_6_);fill:none;stroke:#FFFFFF;stroke-miterlimit:10;}
	.st145{clip-path:url(#XMLID_6_);}
	.st146{opacity:0.53;fill:#FF45E1;}
	.st147{opacity:0.59;fill:#FF45E1;}
	.st148{opacity:0.43;fill:#FF45E1;}
	.st149{opacity:0.79;fill:#FF45E1;}
	.st150{opacity:0.51;fill:#FF45E1;}
	.st151{opacity:0.46;fill:#FF45E1;}
	.st152{fill:#FF45E1;}
	.st153{opacity:0.45;fill:#FF45E1;}
	.st154{opacity:0.32;fill:#FF45E1;}
	.st155{opacity:0.16;fill:#FF45E1;}
	.st156{opacity:0.8;fill:#FF45E1;}
	.st157{opacity:0.13;fill:#FF45E1;}
	.st158{opacity:0.27;fill:#FF45E1;}
	.st159{opacity:0.33;fill:#FF45E1;}
	.st160{opacity:0.15;fill:#FF45E1;}
	.st161{opacity:8.000000e-02;fill:#FF45E1;}
	.st162{opacity:0.89;fill:#FF45E1;}
	.st163{opacity:0.23;fill:#FF45E1;}
	.st164{opacity:0.22;fill:#FF45E1;}
	.st165{opacity:0.86;fill:#FF45E1;}
	.st166{opacity:0.48;fill:#FF45E1;}
	.st167{opacity:0.99;fill:#FF45E1;}
	.st168{opacity:0.67;fill:#FF45E1;}
	.st169{opacity:0.54;fill:#FF45E1;}
	.st170{opacity:0.57;fill:#FF45E1;}
	.st171{opacity:0.72;fill:#FF45E1;}
	.st172{opacity:0.82;fill:#FF45E1;}
	.st173{opacity:0.26;fill:#FF45E1;}
	.st174{opacity:0.75;fill:#FF45E1;}
	.st175{opacity:0.61;fill:#FF45E1;}
	.st176{opacity:0.95;fill:#FF45E1;}
	.st177{opacity:0.71;fill:#FF45E1;}
	.st178{opacity:0.34;fill:#FF45E1;}
</style>
<g id="XMLID_165_">
	<g id="XMLID_345_">
		<defs>
			<path id="XMLID_346_" d="M1241.5,308.8c-2.4,0.8-14.3,12.9-16.7,14.9c-2.4,2-3.8,3.6-9.7,9.9c-6,6.4-18.1,18.9-18.1,18.9
				s-27,14.7-36.8,16.3c-9.7,1.5-22.1,7-22.1,7c-0.8-5.7-2.8-14.5-5.4-24.1c-2.6-9.6-4-12.4-2.5-21.3c0.4-2.4,0.5-4.6,0.3-6.6
				c2.4-0.7,4.8-1.3,6.9-1.8c6.1-1.5,15.2,2,18.2,3.4c0.3,0.3,0.7,0.6,1.1,1c3.3,3.1,6.5,5.5,10.3,5.5c3.7,0.1,4.9-9.2,6.3-9.8
				c1.5-0.6,4.6-0.6,5.2-2.8c0.7-2.3,0.7-3.9,2.3-4.1c1.7-0.2,2.8-4.5,2.8-4.5s4.9,0.9,4.8-3.2c-0.1-4.1,0.3-8.1,0.2-11.8
				c-0.2-3.7,2.2-7,3.7-14.6c1.6-7.6,1.6-12.2-4.6-22.6c-6.3-10.4-15-18.2-28.2-21.5c-13.2-3.3-23.8-0.8-25.2-1l-10.2-9.2
				c-2.4-7.7-12.4-12.2-30.5-4c-18.1,8.2-19.5,32.8-19.5,48.7c0,0.1,0,0.3,0,0.4c-9-3.5-19.7-4.2-26.3-6.7
				c-10.6-4.1-62.2-18.7-71.9-21.4c-9.8-2.7-15.4-0.4-28.2,9.8c-12.8,10.2-41.5,41-47.8,49.1c-6.3,8.1-13.8,11.4-19.2,11.7
				c-5.4,0.3-16.1,2-21.3-0.4c-5.2-2.4-12.5-6.1-14.2-5.7c-1.7,0.4-1.7,3.6,1.8,6.4c3.5,2.8,14,7.3,14,7.3s-13.6,0.2-17.2,0.6
				c-3.5,0.4-6.7-1.5-7.5,2.2c-0.9,3.8,2.4,5.4,2.4,5.4s-3.8,0.5-6.1,2.5c-2.4,2,0.1,7.4,2.2,8.1c2.1,0.7,9.9,1,9.9,1
				s-5.1,3.1-1.7,5.7c3.4,2.6,7.1,1.9,16.8,3c9.7,1.1,25.9-4.5,25.9-4.5s-7,5-7.2,9.6c-0.2,4.7,2.7,8.1,5.9,4.9
				c3.2-3.1,6.5-6.8,12-13.3s7.2-9.5,7.5-13.6c0.2-4,14.2-20.3,32-33.2c17.7-13,36.6-24.3,36.6-24.3s26.6,14.9,39.3,21.6
				c0.7,0.3,1.3,0.7,2,1c-3.7,2.3-7.4,4.7-9.9,6.4c-6.4,4.4-18.1,16.3-24.6,22c-3.2,2.8-9.7,7.3-16.7,11.8
				c-2.3,0.4-30.9,6.2-46,21.5c-6.3,3.9-12.5,9.5-18.4,17.8c-13.1,18.7-9,42-9,42s-31.9,30.5-45.4,53.3
				c-13.4,22.8-20.4,23.3-26.3,23.8c-5.9,0.5-29-2.4-52.3,7.5c-21.4,9-43.4,30.7-64.4,32.2c0.1-1.6-0.6-2.2-0.6-1.6
				c0,0-3.7-2.5-9.6-7.3c-5.9-4.8-9.1-11.5-13.6-10.6c-4.5,0.9-15.8,10.9-20.8,29.6c-5.1,18.8-12.1,20.9-19.7,34.6
				c-7.6,13.7-8.5,28.3-8.5,28.3s2.1,2.1,6.7,2c4.7-0.1,14.3-7.3,21.2-15.4c7-8.1,22.1-10.9,28.3-15.1c6.2-4.2,6.7-10.2,6.7-10.2v0
				c7.4-2.8,36.9-13.4,73.2-18.8c42.2-6.2,39.2-16,61-16.1c21.8-0.1,29-4.3,40.8-11.5c11.8-7.2,35.3-21,52.5-33.9
				c7.2-5.5,15.7-14.8,23.4-25.4c2.3,2.3,4.3,4.3,5.8,5.7c8.5,8,19.7,22.8,30.6,31.4c10.9,8.6,25.5,26.9,25.5,26.9s-18.8,19-28,34.5
				c-9.2,15.5-16.3,42-21.1,63.2c-3.4,15.4-10.3,29-13.9,35.3c-1.3-1.2-2.2-2.1-2.2-2.1c-2.9-0.2-4.7,0.8-5.7,6.9
				c-1,6.2-5.5,16.7-7,18.1c-1.6,1.4-1.5,6-1.2,6.9c0.3,0.9,19.5,10.1,27.4,10.1c7.9,0,29.8,7.2,42.9,7c13.1-0.1,27.9-1.1,29.5-3.7
				c1.7-2.6,1.8-4.5,1.4-7.1c-0.4-2.6-13.3-6.1-18.3-8.5c-5-2.4-18.3-11.8-21.5-15.9c-3.2-4.1-3.9-10.2-7.3-10.8
				c-0.6-0.1-1.1-0.1-1.6-0.1c5.6-15.3,17.2-40.4,28.3-57.3c14.1-21.5,26-43.7,31.2-51.2c5.2-7.5,18.1-12.9,18-28.4
				c-0.1-15.5-11.4-39.1-17.3-52.3c-5.9-13.2-24.2-42-31.4-50.4c-7.2-8.4-11.3-19.1-11.3-19.1s0-0.3,0-0.8
				c3.3-2.9,13.3-11.2,19.6-11.7c7.6-0.6,20.5-5.5,28.3-8.7c0.6-0.2,1.3-0.5,2.1-0.7c8.3,3.8,21.4,4.9,34.9,1.2
				c12.7-3.5,17.6-13.7,21.6-23c0.9,3.3,2,6.6,3.2,9.8c3.8,10.5,4.7,28.2,10.3,35.6c5.6,7.4,10.1,7.5,20,4.4
				c9.8-3.1,35.2-18.1,42.5-23c7.3-4.9,21.2-15.7,30.7-18.5c9.4-2.8,14.8-12.1,18.6-16.5c3.7-4.5,9.2-11.6,12.5-16.7
				c3.3-5.1,0.1-7,0.1-7c1.8-2.5,4.4-8.6,4.4-8.6s1.3-4.5,1.9-8.3C1246.2,308.7,1243.9,308,1241.5,308.8z M1093,270.2
				c2.4-11.5,10.7-23.2,17.3-25c6.6-1.8,9.4-8.7,10.7-8.1c1.2,0.6,4.3,3.8,4.3,3.8s-2.7,0.8-7.6,9.2c-4.9,8.4-4.9,21.4,0.2,30.4
				c3.2,5.6,4.9,10.7,5.8,13.6c-4,1.6-9.6,2-14.1,2.1c-4.3-3.8-11.8-10.5-17.7-16.4c-0.8-0.8-1.8-1.6-2.8-2.2
				C1091.1,275,1092.6,272.4,1093,270.2z"/>
		</defs>
		<clipPath id="XMLID_3_">
			<use xlink:href="#XMLID_346_"  style="overflow:visible;"/>
		</clipPath>
		<g id="XMLID_452_" class="st0">
			<path class="st1" d="M994.8,710.2c-7.5,0-17.6-2.2-26.5-4.2c-6.8-1.5-12.7-2.8-16-2.8c-7.4,0-27.4-8.8-27.9-10.5
				c-0.3-1-0.4-5.9,1.4-7.4c1.3-1.2,5.8-11.3,6.9-17.8c0.9-5.4,2.4-7.4,5.5-7.4c0.2,0,0.5,0,0.7,0c0.1,0,0.3,0.1,0.3,0.2
				c0,0,0.6,0.7,1.6,1.7c3.8-6.8,10.2-19.8,13.5-34.6c6.6-29.6,13.7-50.9,21.1-63.4c8.5-14.3,25.3-31.7,27.8-34.3
				c-2.1-2.6-15.2-18.6-25.1-26.5c-6.6-5.3-13.5-12.9-19.5-19.6c-4-4.5-7.8-8.7-11.1-11.8c-1.4-1.3-3.2-3.1-5.4-5.3
				c-8.1,11-16.4,19.8-23.2,25c-14.6,11-33.7,22.5-46.3,30.2c-2.3,1.4-4.4,2.7-6.2,3.8c-11.3,6.9-18.7,11.4-41.1,11.6
				c-10.1,0.1-14.8,2.2-21.3,5.1c-7.6,3.4-17.1,7.7-39.7,11c-35.6,5.3-64.4,15.5-72.8,18.7c-0.2,1.3-1.3,6.4-6.9,10.2
				c-2.3,1.6-5.9,3-9.7,4.4c-6.7,2.6-14.2,5.5-18.6,10.6c-7.4,8.6-16.9,15.4-21.6,15.5c-0.2,0-0.3,0-0.5,0c-4.5,0-6.5-2-6.6-2.1
				c-0.1-0.1-0.1-0.2-0.1-0.4c0-0.1,0.9-14.9,8.5-28.5c2.8-4.9,5.4-8.4,8-11.6c4.6-5.9,8.5-10.9,11.7-22.9c5.1-19,16.5-29.1,21.2-30
				c0.3-0.1,0.6-0.1,0.9-0.1c2.8,0,5.1,2.6,7.9,5.6c1.5,1.7,3.2,3.6,5.2,5.2c4.8,3.9,8.2,6.3,9.2,7.1c0.1,0,0.1,0,0.2,0
				c0.1,0,0.3,0,0.5,0.3c0.3,0.3,0.5,0.9,0.5,1.6c12.6-1.1,25.9-9.6,38.7-17.9c8.2-5.3,16.7-10.8,25.1-14.3
				c15.9-6.7,31.6-7.5,42-7.5c1.9,0,3.6,0,5.1,0.1c1.2,0,2.2,0,3.1,0c1.1,0,1.8,0,2.4-0.1l0.1,0c5.9-0.5,12.5-1.2,25.8-23.6
				c12.8-21.7,42.6-50.7,45.3-53.3c-0.4-2.7-3.3-24.6,9.1-42.1c5.4-7.7,11.5-13.6,18.5-17.9c14.9-15.1,42.5-20.9,46.1-21.6
				c8-5.2,13.7-9.2,16.5-11.7c2.3-2,5.2-4.7,8.3-7.7c5.7-5.4,12.2-11.5,16.3-14.4c2-1.4,5-3.4,9.1-6c-0.4-0.2-0.8-0.4-1.2-0.6
				c-11.9-6.3-36.3-19.9-39.1-21.5c-2.3,1.4-19.9,12.1-36.3,24.1c-18.4,13.4-31.6,29.3-31.8,32.8c-0.2,4.2-1.9,7.3-7.6,13.9
				c-5.6,6.5-8.9,10.2-12.1,13.3c-0.9,0.9-1.9,1.4-2.8,1.4c-0.8,0-1.6-0.4-2.3-1.1c-1.2-1.2-1.8-3.3-1.7-5.6
				c0.2-3.2,3.2-6.4,5.3-8.4c-4.4,1.3-13.6,3.8-20.8,3.8c-1,0-2-0.1-2.8-0.1c-2.8-0.3-5.2-0.5-7.1-0.6c-4.8-0.3-7.4-0.5-9.9-2.5
				c-1-0.7-1.4-1.6-1.4-2.5c0.1-1.3,1.1-2.4,1.9-3.1c-2.4-0.1-7-0.4-8.6-1c-1.4-0.5-3-2.7-3.4-5c-0.3-1.7,0-3.1,1-4
				c1.6-1.4,3.8-2.1,5.2-2.4c-1-0.9-2.3-2.5-1.7-5.2c0.6-2.5,2.1-2.8,3.5-2.8c0.5,0,1,0,1.6,0.1c0.6,0.1,1.3,0.1,1.9,0.1
				c0.3,0,0.7,0,1,0c2.7-0.3,10.9-0.5,14.9-0.6c-3.3-1.5-9.5-4.4-12-6.4c-2.7-2.1-3.3-4.4-3-5.7c0.2-0.8,0.7-1.4,1.4-1.5
				c0.1,0,0.3,0,0.4,0c1.8,0,6.5,2.2,11,4.3c1.1,0.5,2.1,1,3.1,1.4c1.8,0.8,4.4,1.2,7.9,1.2c3.2,0,6.5-0.3,9.4-0.6
				c1.4-0.1,2.6-0.2,3.7-0.3c2.4-0.2,11-1.4,18.9-11.5c6.2-7.9,34.9-38.9,47.9-49.2c9.1-7.3,15-10.9,21.8-10.9c2.1,0,4.3,0.3,6.9,1
				c10.7,2.9,61.5,17.3,72,21.4c3,1.2,6.8,1.9,11,2.7c4.7,0.9,9.9,2,14.7,3.7c0.1-18.7,2.4-41,19.8-48.9c6.5-2.9,12.3-4.4,17.2-4.4
				c7.1,0,12.2,3.1,13.9,8.6l10,9c0,0,0,0,0,0c0.4,0,1.1-0.1,1.9-0.2c2-0.2,5-0.6,8.8-0.6c4.9,0,9.8,0.6,14.3,1.7
				c12.3,3.1,21.6,10.2,28.5,21.7c6.3,10.5,6.3,15.3,4.7,23c-0.7,3.5-1.6,6.2-2.3,8.3c-0.8,2.5-1.5,4.3-1.4,6.2
				c0.1,1.9,0,3.7-0.1,5.7c-0.1,2-0.2,4-0.1,6.1c0,1.1-0.3,2-0.9,2.7c-0.9,0.9-2.3,1.1-3.3,1.1c-0.3,0-0.5,0-0.7,0
				c-0.4,1.3-1.4,4.3-3.1,4.5c-1,0.1-1.2,0.8-1.6,2.5c-0.1,0.4-0.2,0.8-0.3,1.3c-0.6,2-2.6,2.4-4.2,2.8c-0.5,0.1-1,0.2-1.3,0.4
				c-0.3,0.2-0.9,1.8-1.3,3c-1.1,3.1-2.5,6.9-5.2,6.9c-4.3-0.1-7.8-2.9-10.6-5.7l-1-1c-2.6-1.1-9.1-3.7-14.6-3.7
				c-1.2,0-2.3,0.1-3.2,0.4c-1.8,0.4-4,1-6.5,1.7c0.1,1.9,0,3.8-0.3,5.7c2.1-1.6,3.4-2.6,3.4-2.6c0.1-0.1,0.2-0.1,0.3-0.1
				c0.1,0,0.3,0.1,0.4,0.2c0.2,0.2,0.1,0.5-0.1,0.7c0,0-1.7,1.3-4.2,3.4c-1,6.8-0.2,9.9,1.7,16.6c0.3,1.1,0.6,2.2,1,3.5
				c2.7,9.8,4.5,18.1,5.3,23.5c2.6-1.1,13.1-5.4,21.6-6.8c9.3-1.4,35-15.3,36.5-16.2c0.9-0.9,12.3-12.7,18-18.8
				c1.1-1.2,2.1-2.2,2.9-3.1c3.6-3.9,4.9-5.2,6.9-6.9c0.7-0.6,2.4-2.3,4.4-4.1c5.9-5.6,10.8-10.3,12.5-10.9c0.6-0.2,1.3-0.3,1.8-0.3
				c1,0,1.8,0.3,2.3,1c0.7,0.8,0.9,2,0.6,3.6c-0.6,3.7-1.9,8.3-1.9,8.3c-0.1,0.3-2.4,5.6-4.2,8.3c0.4,0.3,0.9,1,1.1,2
				c0.3,1.6-0.1,3.4-1.5,5.4c-3.5,5.3-9.1,12.6-12.5,16.7c-0.7,0.8-1.4,1.8-2.2,2.8c-3.7,4.9-8.8,11.5-16.6,13.9
				c-7.4,2.2-17.7,9.5-25.3,14.8c-1.9,1.4-3.7,2.6-5.2,3.6c-7,4.7-32.5,19.9-42.6,23.1c-4.4,1.4-7.2,1.9-9.6,1.9
				c-4.3,0-7.4-1.9-10.9-6.5c-3.4-4.6-5.1-13-6.8-21.1c-1-5.2-2.1-10.5-3.6-14.6c-1-2.6-1.9-5.4-2.8-8.5c-4.3,9.8-9.4,18.7-21.3,22
				c-5.5,1.5-11.2,2.3-16.7,2.3c-6.8,0-13.3-1.2-18.3-3.5c-0.8,0.3-1.5,0.5-1.9,0.7c-13.5,5.4-22.8,8.2-28.5,8.7
				c-6,0.5-16,8.7-19.1,11.4c0,0.2,0,0.4,0,0.5c0.4,1,4.4,11.1,11.2,18.9c7.1,8.2,25.5,37.3,31.5,50.5c0.5,1.1,1,2.2,1.5,3.3
				c6.3,13.9,15.7,34.8,15.8,49.1c0.1,11.1-6.4,17.1-12.1,22.4c-2.3,2.1-4.5,4.1-6,6.3c-2.2,3.2-5.7,9.1-10.1,16.5
				c-5.8,10-13.1,22.3-21.2,34.6c-10.7,16.4-22.1,40.7-28,56.5c0.4,0,0.7,0.1,1,0.1c2.3,0.4,3.5,2.9,4.7,5.8
				c0.8,1.8,1.6,3.7,2.9,5.2c3.2,4.1,16.4,13.4,21.3,15.8c1.6,0.8,4.1,1.7,6.7,2.6c7,2.6,11.7,4.4,11.9,6.3c0.4,2.7,0.2,4.6-1.5,7.4
				c-2,3.2-19.6,3.8-29.9,4L994.8,710.2z M1101.5,288.4c3.2,3,6.2,5.7,8.2,7.4c5.6-0.1,10.1-0.8,13.3-1.9c-1-3.2-2.7-7.9-5.7-13.1
				c-5.1-9-5.1-22.3-0.2-30.9c3.6-6.2,6.1-8.3,7.2-9.1c-1-1-2.9-2.8-3.7-3.2c-0.2,0.1-0.9,0.9-1.5,1.6c-1.8,2.1-4.5,5.4-8.8,6.5
				c-6.5,1.7-14.6,13.4-17,24.6c-0.4,2-1.7,4.4-3.7,7.2c1,0.7,1.8,1.3,2.4,2c1.5,1.5,3.1,3.1,5,4.9c0-3-0.1-5-0.1-5
				c0-0.2,0.1-0.4,0.3-0.5c0.1,0,0.2-0.1,0.2-0.1c0.1,0,0.2,0,0.3,0.1C1100,280.3,1101.2,283.4,1101.5,288.4z"/>
			<path class="st2" d="M1110.6,218.3c7.6,0,12,3.6,13.5,8.3l10.2,9.2c0.1,0,0.1,0,0.2,0c1.2,0,5.2-0.7,10.7-0.7
				c4,0,8.9,0.4,14.2,1.7c13.2,3.3,22,11.1,28.2,21.5c6.3,10.4,6.2,15,4.6,22.6c-1.6,7.6-3.9,10.9-3.7,14.6
				c0.2,3.7-0.3,7.6-0.2,11.8c0.1,2.9-2.3,3.3-3.7,3.3c-0.6,0-1.1-0.1-1.1-0.1s-1.1,4.3-2.8,4.5c-1.7,0.2-1.7,1.8-2.3,4.1
				c-0.7,2.3-3.8,2.2-5.2,2.8c-1.5,0.6-2.6,9.8-6.3,9.8c0,0,0,0,0,0c-3.7-0.1-7-2.4-10.3-5.5c-0.4-0.4-0.8-0.7-1.1-1
				c-2.6-1.1-9.2-3.7-14.9-3.7c-1.2,0-2.3,0.1-3.3,0.4c-2.1,0.5-4.5,1.2-6.9,1.8c0.1,2,0.1,4.1-0.3,6.6c0,0.2-0.1,0.4-0.1,0.6
				c2.6-2,4.4-3.3,4.4-3.3s-1.7,1.3-4.4,3.5c-1.3,8.2,0.2,11.2,2.7,20.5c2.6,9.6,4.6,18.3,5.4,24.1c0,0,12.3-5.5,22.1-7
				c9.7-1.5,36.8-16.3,36.8-16.3s12.1-12.5,18.1-18.9c6-6.4,7.3-7.9,9.7-9.9c2.5-2,14.3-14.1,16.7-14.9c0.6-0.2,1.1-0.3,1.7-0.3
				c1.7,0,2.9,1.1,2.5,4c-0.6,3.8-1.9,8.3-1.9,8.3s-2.6,6.1-4.4,8.6c0,0,3.2,1.9-0.1,7c-3.3,5.1-8.7,12.2-12.5,16.7
				c-3.7,4.5-9.2,13.7-18.6,16.5c-9.4,2.8-23.3,13.6-30.7,18.5c-7.3,4.9-32.7,19.9-42.5,23c-3.8,1.2-6.8,1.9-9.4,1.9
				c-4.1,0-7.1-1.8-10.5-6.3c-5.6-7.4-6.5-25.1-10.3-35.6c-1.2-3.2-2.2-6.5-3.2-9.8c-4,9.3-8.8,19.5-21.6,23
				c-5.7,1.6-11.4,2.3-16.6,2.3c-7.1,0-13.5-1.3-18.3-3.5c-0.9,0.3-1.6,0.5-2.1,0.7c-7.8,3.1-20.8,8-28.3,8.7
				c-6.2,0.5-16.3,8.8-19.6,11.7c0,0.5,0,0.8,0,0.8s4.1,10.7,11.3,19.1c7.2,8.4,25.5,37.2,31.4,50.4c5.9,13.2,17.2,36.8,17.3,52.3
				c0.1,15.5-12.8,20.9-18,28.4c-5.2,7.5-17.1,29.7-31.2,51.2c-11,16.9-22.7,42-28.3,57.3c0.1,0,0.2,0,0.3,0c0.4,0,0.9,0,1.3,0.1
				c3.5,0.6,4.1,6.7,7.3,10.8c3.2,4.1,16.5,13.5,21.5,15.9c5,2.4,18,5.9,18.3,8.5c0.4,2.6,0.2,4.4-1.4,7.1
				c-1.7,2.6-16.5,3.6-29.5,3.7c-0.1,0-0.3,0-0.4,0c-13.1,0-34.7-7-42.5-7c-7.9,0-27.1-9.2-27.4-10.1c-0.3-0.9-0.3-5.5,1.2-6.9
				c1.6-1.4,6-11.9,7-18.1c0.9-5.7,2.5-7,5-7c0.2,0,0.4,0,0.7,0c0,0,0.8,1,2.2,2.1c3.5-6.3,10.4-19.9,13.9-35.3
				c4.7-21.2,11.8-47.7,21.1-63.2c9.2-15.5,28-34.5,28-34.5s-14.6-18.2-25.5-26.9c-10.9-8.6-22.1-23.5-30.6-31.4
				c-1.5-1.4-3.5-3.4-5.8-5.7c-7.8,10.5-16.2,19.9-23.5,25.4c-17.2,13-40.7,26.7-52.5,33.9c-11.8,7.2-19,11.4-40.8,11.5
				c-21.8,0.1-18.9,9.9-61,16.1c-36.3,5.4-65.7,16-73.2,18.8h0c0,0-0.5,6-6.7,10.2c-6.2,4.2-21.4,7-28.3,15.1
				c-7,8.1-16.6,15.2-21.2,15.4c-0.2,0-0.3,0-0.5,0c-4.3,0-6.3-2-6.3-2s0.8-14.7,8.5-28.3c7.6-13.7,14.7-15.9,19.7-34.6
				c5.1-18.8,16.3-28.7,20.8-29.6c0.3-0.1,0.6-0.1,0.8-0.1c4.1,0,7.3,6.1,12.8,10.6c5.9,4.8,9.6,7.3,9.6,7.3c0-0.1,0.1-0.2,0.1-0.2
				c0.2,0,0.6,0.6,0.5,1.9c21-1.5,43-23.2,64.4-32.2c15.8-6.6,31.4-7.5,41.8-7.5c3.3,0,6.1,0.1,8.2,0.1c1,0,1.8,0,2.4-0.1
				c5.9-0.5,12.8-1,26.3-23.8c13.4-22.8,45.4-53.3,45.4-53.3s-4.2-23.4,9-42c5.9-8.3,12.1-13.9,18.4-17.8c15-15.3,43.7-21.1,46-21.5
				c6.9-4.5,13.4-9,16.7-11.8c6.5-5.7,18.2-17.6,24.6-22c2.5-1.7,6.2-4.1,9.9-6.4c-0.7-0.3-1.3-0.7-2-1
				c-12.7-6.7-39.3-21.6-39.3-21.6s-18.9,11.3-36.6,24.3c-17.7,13-31.8,29.2-32,33.2c-0.2,4-1.9,7.1-7.5,13.6
				c-5.6,6.5-8.8,10.2-12,13.3c-0.9,0.8-1.7,1.2-2.5,1.2c-2.1,0-3.6-2.7-3.5-6.1c0.2-4.7,7.2-9.6,7.2-9.6s-13.4,4.6-23.1,4.6
				c-1,0-1.9,0-2.8-0.1c-9.7-1.1-13.4-0.4-16.8-3c-3.4-2.6,1.7-5.7,1.7-5.7s-7.8-0.3-9.9-1c-2.1-0.7-4.6-6.1-2.2-8.1
				c2.4-2,6.1-2.5,6.1-2.5s-3.3-1.6-2.4-5.4c0.4-2,1.5-2.4,3-2.4c1,0,2.2,0.2,3.5,0.2c0.3,0,0.7,0,1-0.1c3.5-0.4,17.2-0.6,17.2-0.6
				s-10.5-4.5-14-7.3c-3.5-2.8-3.5-6-1.8-6.4c0.1,0,0.2,0,0.3,0c2.1,0,8.9,3.4,13.9,5.7c2.1,0.9,5,1.2,8.1,1.2
				c4.7,0,9.9-0.7,13.1-0.9c5.4-0.3,12.9-3.6,19.2-11.7c6.3-8.1,35-38.9,47.8-49.1c9.6-7.6,15.2-10.8,21.5-10.8c2.1,0,4.3,0.4,6.7,1
				c9.8,2.7,61.3,17.2,71.9,21.4c6.5,2.5,17.3,3.2,26.3,6.7c0-0.1,0-0.3,0-0.4c0-15.9,1.4-40.5,19.5-48.7
				C1100.3,219.6,1106,218.3,1110.6,218.3 M1097.8,285.6c0-3.7-0.1-6.2-0.1-6.2c2.2,1.4,3.1,4.9,3.4,9.2c3.3,3,6.3,5.8,8.5,7.7
				c4.5-0.1,10.1-0.6,14.1-2.1c-0.9-3-2.7-8-5.8-13.6c-5-9-5-22-0.2-30.4c4.9-8.4,7.6-9.2,7.6-9.2s-3.1-3.1-4.3-3.8
				c-0.1,0-0.1,0-0.2,0c-1.3,0-4.1,6.5-10.5,8.1c-6.6,1.8-14.9,13.4-17.3,25c-0.5,2.2-1.9,4.7-3.9,7.4c1,0.7,2,1.4,2.8,2.2
				C1093.8,281.7,1095.8,283.7,1097.8,285.6 M1110.6,217.3l0,1L1110.6,217.3c-5,0-10.9,1.5-17.4,4.5c-17.5,7.9-20,29.9-20.1,48.6
				c-4.6-1.6-9.6-2.6-14.1-3.5c-4.1-0.8-8-1.6-10.9-2.7c-10.5-4.1-61.3-18.5-72-21.4c-2.6-0.7-4.9-1.1-7-1.1c-7,0-12.9,3.7-22.1,11
				c-13,10.3-41.8,41.3-47.9,49.3c-7.7,9.9-16.1,11.2-18.5,11.3c-1.1,0.1-2.3,0.2-3.7,0.3c-2.9,0.3-6.2,0.6-9.4,0.6
				c-3.5,0-6-0.4-7.7-1.2c-1-0.4-2-0.9-3.1-1.4c-5.6-2.6-9.4-4.3-11.2-4.3c-0.2,0-0.4,0-0.5,0.1c-0.9,0.2-1.6,0.9-1.8,1.9
				c-0.3,1.5,0.3,3.9,3.2,6.2c2.2,1.7,6.8,4,10.1,5.6c-4.3,0.1-10.5,0.3-12.8,0.5c-0.3,0-0.6,0-0.9,0c-0.6,0-1.3-0.1-1.9-0.1
				c-0.6-0.1-1.1-0.1-1.6-0.1c-1.4,0-3.3,0.3-4,3.2c-0.5,2.2,0.2,3.9,1.2,5c-1.4,0.4-3.2,1.1-4.5,2.3c-1.1,1-1.6,2.5-1.2,4.5
				c0.4,2.1,1.9,4.7,3.7,5.3c1.5,0.5,5.1,0.8,7.6,0.9c-0.6,0.7-1.2,1.7-1.3,2.7c0,0.8,0.2,1.9,1.6,2.9c2.7,2,5.3,2.2,10.2,2.6
				c2,0.1,4.2,0.3,7.1,0.6c0.9,0.1,1.9,0.2,2.9,0.2c6.4,0,14.1-1.9,19-3.3c-1.9,2-3.9,4.6-4,7.3c-0.1,2.4,0.6,4.7,1.8,6
				c0.8,0.8,1.7,1.2,2.7,1.2c0.8,0,1.9-0.3,3.2-1.5c3.2-3.1,6.5-6.8,12.1-13.4c5.7-6.7,7.5-9.8,7.7-14.2
				c0.2-3.3,13.6-19.4,31.6-32.5c15.9-11.6,33-22.1,36.1-23.9c3.7,2.1,27.2,15.2,38.8,21.3c0.1,0.1,0.3,0.2,0.4,0.2
				c-3.7,2.4-6.5,4.2-8.4,5.5c-4.2,2.9-10.7,9-16.4,14.4c-3.1,2.9-6,5.7-8.3,7.7c-2.8,2.4-8.4,6.4-16.4,11.6
				c-4,0.8-31.3,6.6-46.2,21.7c-7,4.4-13.1,10.2-18.6,18c-12.1,17.2-9.7,38.6-9.2,42.2c-3.6,3.5-32.6,31.9-45.2,53.2
				c-13.1,22.2-19.6,22.8-25.4,23.3l-0.1,0c-0.5,0-1.3,0.1-2.3,0.1c-0.9,0-1.9,0-3.1,0c-1.5,0-3.2-0.1-5.1-0.1
				c-10.4,0-26.1,0.8-42.1,7.5c-8.4,3.5-16.9,9-25.1,14.3c-12.6,8.1-25.6,16.5-37.9,17.7c-0.1-0.6-0.3-1-0.6-1.4
				c-0.2-0.3-0.6-0.4-0.9-0.4c0,0,0,0,0,0c0,0-0.1,0-0.1,0c-1.2-0.8-4.5-3.2-9-6.9c-2-1.6-3.7-3.5-5.2-5.2c-2.8-3.1-5.2-5.7-8.2-5.7
				c-0.3,0-0.7,0-1,0.1c-4.8,1-16.4,11.1-21.6,30.4c-3.2,11.8-7.1,16.9-11.6,22.7c-2.6,3.3-5.2,6.7-8,11.7
				c-7.6,13.7-8.5,28.2-8.6,28.8c0,0.3,0.1,0.6,0.3,0.8c0.1,0.1,2.3,2.3,7,2.3c0.2,0,0.3,0,0.5,0c5.4-0.2,15.4-8.1,22-15.7
				c4.3-4.9,11.7-7.8,18.4-10.4c3.8-1.5,7.4-2.9,9.8-4.5c5.4-3.7,6.7-8.5,7.1-10.3c8.7-3.3,37.3-13.3,72.4-18.5
				c22.6-3.3,32.6-7.8,39.8-11.1c6.4-2.9,11.1-5,21.1-5c22.5-0.1,30-4.7,41.3-11.6c1.8-1.1,3.9-2.4,6.2-3.8
				c12.6-7.6,31.8-19.2,46.3-30.2c6.8-5.1,14.9-13.9,23-24.6c2,2,3.6,3.6,5,4.9c3.3,3.1,7.1,7.3,11.1,11.8
				c6,6.8,12.9,14.4,19.5,19.7c9.5,7.5,22,22.6,24.8,26c-3.4,3.5-19.3,20.2-27.6,34c-7.4,12.5-14.6,33.9-21.2,63.5
				c-3.2,14.3-9.4,27-13.2,33.9c-0.7-0.7-1.1-1.2-1.1-1.2c-0.2-0.2-0.4-0.3-0.7-0.3c-0.3,0-0.5,0-0.7,0c-3.4,0-5.1,2.2-6,7.8
				c-1,6.2-5.4,16.4-6.7,17.5c-2,1.8-1.9,6.8-1.5,8c0.4,1.4,8.9,5,11.4,6c4.3,1.8,12.2,4.8,16.9,4.8c3.3,0,9.1,1.3,15.9,2.8
				c8.9,2,19.1,4.2,26.6,4.2l0.4,0c18.5-0.2,28.7-1.6,30.4-4.2c1.8-2.9,2-5,1.6-7.7c-0.3-2.1-4.2-3.7-12.3-6.7
				c-2.6-0.9-5-1.8-6.6-2.6c-4.7-2.3-18-11.7-21.1-15.6c-1.2-1.5-2-3.4-2.8-5.1c-1.3-2.9-2.5-5.6-5.1-6.1c-0.1,0-0.3,0-0.4-0.1
				c5.9-15.9,17.2-39.7,27.7-55.8c8-12.3,15.3-24.7,21.2-34.7c4.4-7.5,7.8-13.3,10-16.5c1.5-2.1,3.6-4.1,5.9-6.2
				c5.8-5.3,12.4-11.4,12.3-22.8c-0.1-14.4-9.6-35.4-15.8-49.4c-0.5-1.2-1-2.3-1.5-3.3c-5.9-13.3-24.4-42.4-31.5-50.6
				c-6.6-7.6-10.5-17.3-11.1-18.7c0,0,0-0.1,0-0.1c3.3-2.9,12.9-10.7,18.7-11.2c5.7-0.5,15.1-3.3,28.6-8.7c0.4-0.2,1-0.4,1.7-0.6
				c5,2.2,11.5,3.4,18.3,3.4c5.6,0,11.3-0.8,16.9-2.3c11.7-3.2,16.9-11.6,21.1-21.1c0.8,2.6,1.6,5,2.4,7.3c1.5,4.1,2.6,9.4,3.6,14.6
				c1.6,8.2,3.3,16.6,6.9,21.3c3.6,4.8,6.9,6.7,11.3,6.7c2.5,0,5.3-0.6,9.7-2c10.1-3.2,35.7-18.4,42.7-23.1c1.5-1,3.3-2.3,5.2-3.6
				c7.5-5.3,17.8-12.6,25.2-14.7c8-2.4,13.2-9.1,16.9-14.1c0.8-1,1.5-2,2.2-2.8c3.5-4.1,9-11.4,12.5-16.8c1.4-2.2,1.9-4.1,1.5-5.8
				c-0.2-0.9-0.6-1.5-0.9-1.9c1.8-2.8,3.9-7.8,4-8c0,0,0-0.1,0-0.1c0.1-0.2,1.3-4.6,1.9-8.4c0.3-1.7,0-3.1-0.7-4
				c-0.6-0.7-1.6-1.1-2.7-1.1c-0.6,0-1.3,0.1-2,0.4c-1.7,0.6-6.5,5.1-12.6,11c-2,1.9-3.7,3.5-4.4,4.1c-2,1.7-3.3,3-6.9,6.9
				c-0.8,0.9-1.8,1.9-2.9,3.1c-5.6,6-16.8,17.5-18,18.8c-2.1,1.1-27.2,14.7-36.3,16.1c-8.1,1.3-17.7,5.1-21.1,6.5
				c-0.8-5.4-2.7-13.5-5.2-22.9c-0.4-1.3-0.7-2.5-1-3.5c-1.8-6.5-2.7-9.6-1.7-16.2c2.5-2,4.1-3.2,4.1-3.3c0.4-0.3,0.5-1,0.2-1.4
				c-0.2-0.3-0.5-0.4-0.8-0.4c-0.2,0-0.4,0.1-0.6,0.2c0,0-0.9,0.7-2.4,1.8c0.1-1.4,0.2-2.8,0.1-4.2c2.4-0.7,4.4-1.2,6.1-1.6
				c0.9-0.2,1.9-0.3,3.1-0.3c5.4,0,11.7,2.4,14.4,3.6l1,0.9c2.9,2.8,6.5,5.7,10.9,5.8c3.1,0,4.5-4,5.7-7.2c0.4-1,0.8-2.4,1.1-2.7
				c0.3-0.1,0.7-0.2,1.2-0.3c1.6-0.4,3.9-0.9,4.5-3.1c0.1-0.5,0.2-0.9,0.3-1.3c0.4-1.8,0.6-2,1.1-2.1c1.8-0.2,2.9-2.8,3.4-4.4
				c0.1,0,0.2,0,0.4,0c1.1,0,2.6-0.2,3.7-1.3c0.7-0.8,1.1-1.8,1-3.1c-0.1-2,0-4.1,0.1-6c0.1-2,0.2-3.9,0.1-5.8
				c-0.1-1.8,0.5-3.6,1.4-6c0.7-2.1,1.6-4.8,2.4-8.4c1.6-7.8,1.7-12.6-4.7-23.3c-7-11.7-16.4-18.9-28.8-22
				c-4.6-1.2-9.5-1.7-14.5-1.7c-3.8,0-6.8,0.3-8.8,0.6c-0.7,0.1-1.4,0.2-1.7,0.2l-9.7-8.8C1123.1,220.5,1117.9,217.3,1110.6,217.3
				L1110.6,217.3z M1090.5,277.4c1.9-2.7,3.1-5,3.5-7c2.3-11,10.2-22.5,16.6-24.2c4.5-1.2,7.4-4.6,9.1-6.7c0.4-0.5,0.9-1.1,1.2-1.3
				c0.7,0.5,1.9,1.6,2.9,2.5c-1.4,1-3.7,3.4-6.8,8.9c-5.1,8.7-5,22.2,0.2,31.4c2.8,4.9,4.5,9.4,5.5,12.5c-3.1,1-7.3,1.6-12.5,1.7
				c-2-1.7-4.8-4.3-7.9-7.2c-0.4-5-1.6-8.2-3.8-9.6c-0.2-0.1-0.4-0.2-0.5-0.2c-0.2,0-0.3,0-0.5,0.1c-0.3,0.2-0.5,0.5-0.5,0.9
				c0,0,0.1,1.5,0.1,3.8c-1.5-1.5-2.9-2.8-4.2-4C1092,278.6,1091.3,278,1090.5,277.4L1090.5,277.4z"/>
		</g>
		<path id="XMLID_451_" class="st3" d="M1030.9,443.7c0,0-42.5,38.1-86.9,41.5"/>
		<path id="XMLID_450_" class="st3" d="M934.8,339.5c0,0,35.4,18.8,65.7,68.1"/>
		<path id="XMLID_449_" class="st3" d="M942.2,465.8c0,0-76.6-45.2-51.2-91.2"/>
		<path id="XMLID_448_" class="st3" d="M860,435.6c0,0,15.6,48.2,61,71.4"/>
		<path id="XMLID_447_" class="st3" d="M888.5,297.9c0,0,13.3,28.9,29.8,35.3"/>
		<path id="XMLID_446_" class="st3" d="M907.8,275.7c0,0,13.3,28.9,29.8,35.3"/>
		<path id="XMLID_445_" class="st3" d="M1208.8,385c0,0-7.6-31-22.5-40.3"/>
		<path id="XMLID_444_" class="st3" d="M1186.6,395.6c0,0-7.6-31-22.5-40.3"/>
		<path id="XMLID_433_" class="st3" d="M923,680.9c0,0,6.4,9.6,39.6,15.2c18.3,3.1,44.5,8.7,81.7,2.6"/>
		<path id="XMLID_432_" class="st3" d="M688.2,518c0,0-6.7,4.9-15.3,15.1c-8.6,10.2-6,21.2-17.3,35.5c-11.4,14.4-18.8,29-21.6,47.5"
			/>
		<g id="XMLID_431_" class="st0">
			<path class="st2" d="M1097.7,279.3c6.5,4.2,1.9,27,1.6,35.2c-0.3,8.2-8.9,19.5-13.2,28.5c-4.4,9-7,18.4-2.7,20.4
				c1,0.5,2.2,0.7,3.6,0.7c4.5,0,10.4-2.5,13.7-7.6c4.4-6.7,33.7-28.8,33.7-28.8s-27.9,21.7-32.1,31.6c-4.2,9.8-8.8,21.2-22.4,25
				c-5.7,1.6-11.4,2.3-16.6,2.3c-7.2,0-13.7-1.3-18.5-3.6c-8.3-3.8-10.3-3.4-19.3-13s-16.2-18.6-22.6-31.8
				c-6.4-13.2-7.9-25.5-7.9-25.5c2.2-2.5,20.8-15.3,20.8-15.3s6.6,2.7,9.9,9.7c3.3,7,8.7,20.4,15.4,26.7c5.4,5.1,14,11.2,22.3,11.2
				c1.8,0,3.6-0.3,5.4-0.9c9.9-3.6,22.5-18.6,26.1-30.3C1098.6,302,1097.7,279.3,1097.7,279.3 M1097.7,278.3c-0.2,0-0.3,0-0.5,0.1
				c-0.3,0.2-0.5,0.5-0.5,0.9c0,0.2,0.9,22.6-2.6,34c-3.6,11.8-16,26.3-25.5,29.7c-1.6,0.6-3.3,0.9-5.1,0.9
				c-9.2,0-18.2-7.6-21.7-10.9c-5.6-5.3-10.5-16.1-13.7-23.2c-0.5-1.1-1-2.2-1.4-3.2c-3.4-7.3-10.1-10.1-10.4-10.2
				c-0.1-0.1-0.3-0.1-0.4-0.1c-0.2,0-0.4,0.1-0.6,0.2c-0.8,0.5-18.8,12.9-21,15.4c-0.2,0.2-0.3,0.5-0.2,0.8c0.1,0.5,1.6,12.7,8,25.8
				c6.5,13.4,13.8,22.5,22.8,32c7.4,7.9,10.3,9.1,15.5,11.4c1.2,0.5,2.5,1.1,4.1,1.8c5.1,2.4,11.8,3.7,18.9,3.7
				c5.6,0,11.3-0.8,16.9-2.3c13.8-3.8,18.6-15.1,22.8-25l0.2-0.6c4-9.5,31.5-30.9,31.7-31.2c0.4-0.3,0.5-1,0.2-1.4
				c-0.2-0.3-0.5-0.4-0.8-0.4c-0.2,0-0.4,0.1-0.6,0.2c-1.2,0.9-29.5,22.3-33.9,29c-3.3,4.9-9,7.2-12.9,7.2c-1.2,0-2.3-0.2-3.2-0.6
				c-0.6-0.3-1-0.8-1.3-1.5c-1.1-3,0.6-9.6,4.5-17.5c1.3-2.7,3-5.6,4.8-8.7c4.1-7,8.3-14.3,8.5-20.2c0.1-1.8,0.4-4.4,0.7-7.4
				c1.2-10.6,2.8-25-2.8-28.6C1098.1,278.4,1097.9,278.3,1097.7,278.3L1097.7,278.3z"/>
		</g>
		<path id="XMLID_430_" class="st3" d="M701.4,530.8c1.3,4.1,1.9,6.8-3.2,15.1c-5.1,8.4-7.2,15.4-4.8,21.6
			c2.5,6.3-6.1,14.7-6.1,14.7"/>
		<path id="XMLID_429_" class="st3" d="M933.3,660.4c0.1-1.3,6.2-0.6,13.5,4.4c7.3,5,20.8,1.5,28.1-0.6c7.3-2.1,13.9,2.6,13.9,2.6"
			/>
		<g id="XMLID_349_" class="st0">
			<path id="XMLID_428_" class="st4" d="M941.9,161.7l-7.1,96.3l103.3-89.2L941.9,161.7z"/>
			<path id="XMLID_425_" class="st5" d="M934.9,258l96.3,7.1l7.1-96.3L934.9,258z"/>
			<path id="XMLID_424_" class="st6" d="M1223.6,279.1l7.1-96.3l-96.3-7.1L1223.6,279.1z"/>
			<path id="XMLID_423_" class="st7" d="M1127.4,272.1l96.3,7.1l-89.2-103.3L1127.4,272.1z"/>
			<path id="XMLID_422_" class="st8" d="M1038.2,168.8l-7.1,96.3l103.3-89.2L1038.2,168.8z"/>
			<path id="XMLID_421_" class="st9" d="M1031.1,265l96.3,7.1l7.1-96.3L1031.1,265z"/>
			<path id="XMLID_420_" class="st10" d="M1230.7,182.9l-7.1,96.3l103.3-89.2L1230.7,182.9z"/>
			<path id="XMLID_412_" class="st11" d="M1223.6,279.1l96.3,7.1l7.1-96.3L1223.6,279.1z"/>
			<path id="XMLID_411_" class="st12" d="M1216.6,375.4l7.1-96.3l-96.3-7.1L1216.6,375.4z"/>
			<path id="XMLID_410_" class="st13" d="M1120.3,368.3l96.3,7.1l-89.2-103.3L1120.3,368.3z"/>
			<path id="XMLID_409_" class="st14" d="M1031.1,265l-7.1,96.3l103.3-89.2L1031.1,265z"/>
			<path id="XMLID_408_" class="st15" d="M1024.1,361.3l96.3,7.1l7.1-96.3L1024.1,361.3z"/>
			<path id="XMLID_407_" class="st16" d="M838.6,250.9l-7.1,96.3L934.9,258L838.6,250.9z"/>
			<path id="XMLID_406_" class="st17" d="M831.6,347.2l96.3,7.1l7.1-96.3L831.6,347.2z"/>
			<path id="XMLID_405_" class="st11" d="M1024.1,361.3l7.1-96.3l-96.3-7.1L1024.1,361.3z"/>
			<path id="XMLID_404_" class="st18" d="M927.8,354.2l96.3,7.1L934.9,258L927.8,354.2z"/>
			<path id="XMLID_403_" class="st19" d="M1223.6,279.1l-7.1,96.3l103.3-89.2L1223.6,279.1z"/>
			<path id="XMLID_402_" class="st20" d="M1216.6,375.4l96.3,7.1l7.1-96.3L1216.6,375.4z"/>
			<path id="XMLID_401_" class="st21" d="M831.6,347.2l-7.1,96.3l103.3-89.2L831.6,347.2z"/>
			<path id="XMLID_400_" class="st22" d="M824.5,443.4l96.3,7.1l7.1-96.3L824.5,443.4z"/>
			<path id="XMLID_399_" class="st23" d="M927.8,354.2l-7.1,96.3l103.3-89.2L927.8,354.2z"/>
			<path id="XMLID_398_" class="st24" d="M920.8,450.5l96.3,7.1l7.1-96.3L920.8,450.5z"/>
			<path id="XMLID_397_" class="st25" d="M1024.1,361.3l-7.1,96.3l103.3-89.2L1024.1,361.3z"/>
			<path id="XMLID_396_" class="st26" d="M1017,457.5l96.3,7.1l7.1-96.3L1017,457.5z"/>
			<path id="XMLID_394_" class="st27" d="M1305.8,478.7l7.1-96.3l-96.3-7.1L1305.8,478.7z"/>
			<path id="XMLID_393_" class="st28" d="M1209.5,471.6l96.3,7.1l-89.2-103.3L1209.5,471.6z"/>
			<path id="XMLID_392_" class="st29" d="M1120.3,368.3l-7.1,96.3l103.3-89.2L1120.3,368.3z"/>
			<path id="XMLID_391_" class="st30" d="M1113.3,464.6l96.3,7.1l7.1-96.3L1113.3,464.6z"/>
			<path id="XMLID_390_" class="st31" d="M632,429.3l-7.1,96.3l103.3-89.2L632,429.3z"/>
			<path id="XMLID_389_" class="st32" d="M625,525.6l96.3,7.1l7.1-96.3L625,525.6z"/>
			<path id="XMLID_382_" class="st33" d="M728.3,436.4l-7.1,96.3l103.3-89.2L728.3,436.4z"/>
			<path id="XMLID_381_" class="st34" d="M721.2,532.6l96.3,7.1l7.1-96.3L721.2,532.6z"/>
			<path id="XMLID_380_" class="st35" d="M824.5,443.4l-7.1,96.3l103.3-89.2L824.5,443.4z"/>
			<path id="XMLID_379_" class="st7" d="M817.5,539.7l96.3,7.1l7.1-96.3L817.5,539.7z"/>
			<path id="XMLID_378_" class="st36" d="M920.8,450.5l-7.1,96.3l103.3-89.2L920.8,450.5z"/>
			<path id="XMLID_377_" class="st37" d="M913.7,546.7l96.3,7.1l7.1-96.3L913.7,546.7z"/>
			<path id="XMLID_376_" class="st38" d="M1017,457.5l-7.1,96.3l103.3-89.2L1017,457.5z"/>
			<path id="XMLID_375_" class="st17" d="M1010,553.8l96.3,7.1l7.1-96.3L1010,553.8z"/>
			<path id="XMLID_374_" class="st39" d="M625,525.6l-7.1,96.3l103.3-89.2L625,525.6z"/>
			<path id="XMLID_373_" class="st4" d="M617.9,621.8l96.3,7.1l7.1-96.3L617.9,621.8z"/>
			<path id="XMLID_372_" class="st5" d="M721.2,532.6l-7.1,96.3l103.3-89.2L721.2,532.6z"/>
			<path id="XMLID_371_" class="st21" d="M714.2,628.9l96.3,7.1l7.1-96.3L714.2,628.9z"/>
			<path id="XMLID_370_" class="st22" d="M817.5,539.7l-7.1,96.3l103.3-89.2L817.5,539.7z"/>
			<path id="XMLID_369_" class="st40" d="M810.4,635.9l96.3,7.1l7.1-96.3L810.4,635.9z"/>
			<path id="XMLID_366_" class="st41" d="M913.7,546.7l-7.1,96.3l103.3-89.2L913.7,546.7z"/>
			<path id="XMLID_365_" class="st19" d="M906.7,643l96.3,7.1l7.1-96.3L906.7,643z"/>
			<path id="XMLID_364_" class="st13" d="M1010,553.8l-7.1,96.3l103.3-89.2L1010,553.8z"/>
			<path id="XMLID_363_" class="st42" d="M1002.9,650l96.3,7.1l7.1-96.3L1002.9,650z"/>
			<path id="XMLID_358_" class="st4" d="M906.7,643l-7.1,96.3l103.3-89.2L906.7,643z"/>
			<path id="XMLID_357_" class="st5" d="M899.6,739.2l96.3,7.1l7.1-96.3L899.6,739.2z"/>
			<path id="XMLID_356_" class="st43" d="M1002.9,650l-7.1,96.3l103.3-89.2L1002.9,650z"/>
			<path id="XMLID_355_" class="st26" d="M995.9,746.3l96.3,7.1l7.1-96.3L995.9,746.3z"/>
		</g>
	</g>
	<g id="XMLID_235_">
		<defs>
			<path id="XMLID_240_" d="M584.2,614.8c5.7-15.4,15.2-31.1,16.9-42.7s-0.2-20.4-16.3-32.8c-16-12.4-49.5-37.8-67-46
				c-12.1-5.6-22.2-11.9-27.3-15.3c2.2-6.3,6.8-21.4,5.1-34.7c-1.2-9.8-0.3-36.9-0.6-47.6c0-1.1-0.1-2-0.1-2.9
				c5.5,6.5,10.1,11.9,12.6,13.3c4.8,2.9,11.7,7.3,15.2,2.3c3.5-5,12.9-17.1,20-32.3c7.1-15.2,9.4-26.5,13.3-34.2
				c3.8-7.7,3.8-7.7,9.6-20.2c5.8-12.5,6.7-17.3,2.7-23.6c-4-6.3-8.8-5.4-12.2-11.1c-3.4-5.7-6.8-2.7-6.8-2.7
				c-3.3-5-8.5,2.5-8.5,2.5s-5.8-6.7-4.6-2.3c1.2,4.4,2.9,11.5,2.1,20.8c-0.8,9.2,4.4,18.2,4.4,18.2s-6.1,19.9-12.6,28.2
				C523.4,359.8,514,370,514,370s-2.5-3.6-7.5-12.2c0.4-2.2,0.7-4.4,0.6-6.9c-0.4-14.5-30.3-52.9-35-59.5c-0.6-0.9-1.5-1.8-2.6-2.7
				c3.2-3.9,8.4-10,9.5-10.5c1.6-0.8,7.5,2,10.1,2.9c2.6,0.9,8.6,1.4,10.7,0.3c2.1-1.1,3-4.7,3.8-7.6c0.7-2.9,1.7-2.7,3.2-4.8
				c1.5-2.1,0.3-3.1,0.3-3.1s2.3-2.2,1.8-3.5c-0.5-1.2,0.5-4.1,0.5-4.1s4.7,0.4,6.3-2.3c1.6-2.8-2.5-9.4-4-12
				c-1.5-2.7-2.6-3.9-1.4-10.5c1.1-6.6-0.1-15.2-1.6-19.7c-1.5-4.5-3.4-8.5-9.7-13.8c-6.4-5.3-25.9-12.8-37-10
				c-11.1,2.8-15.7,8.7-19.3,10.2l-6.2,3.3c0,0-5.3-4.3-5.4-4.3c-3.1-2.5-6.5-9.6-12.8-8.6c-6.3,1-7.4,3.5-9.8,6.1
				c-2.3,2.7-10.7-0.6-10.7-0.6s-7.2-1-12.9,0c-5.6,1.1-6.6,2.5-11.8,1.5c-5.2-1.1-11.5,1.5-11.5,1.5s3.5-0.5,7.8,0.7
				s3.3,3.2,3.3,3.2l-6.2,1.2c0,0-3.9,0.7-7.5-0.8c-3.6-1.6-8.7,1.9-8.7,1.9s6-0.3,10.6,1.3c3.4,1.2,6.2,0.3,7.5-0.2l-6.6,3.1
				c0,0-9.2,2.7-13,3.2c-3.8,0.5-10.5,6.2-12.2,10.6c-1.7,4.4-2.2,4.2-2,9.6c0.2,5.4-4.9,10.6-4.9,10.6s1.1-0.8,4.1-3.1
				c3.1-2.3,3.1-5.9,5.6-7.6c2.4-1.7,6.3-0.7,6.3-0.7s-1.4,2.7-5.1,4.6c-3.7,1.9-4.4,6.1-4.4,6.1s3.8-5.5,7.6-6.6
				c3.9-1.1,2.2-1,6.1-3.2c3.9-2.1,4-3.9,5.4-5.7c1.4-1.8,6.5-0.3,6.5-0.3s-4.6,3.2-7.2,6.1c-2.5,2.9-3.4,6.1-5.2,7.9
				c-1.8,1.8-3.2,3-4,6c-0.8,3.1-0.7,5.5-5.6,7.3c-4.9,1.8-7,6.8-7,6.8s2.5-2.9,8-2c5.5,0.9,4.9-5.3,4.9-5.3l0.8,4.1
				c0,0,1.1,5.1,3.4,9.7c2.3,4.6,4,4.1,4.7,8.3c0.7,4.2,1.7,7.3,1.7,7.3s-0.3-3.1,2.3-4.4c2.6-1.2,2.8-3.7,3.4-2.8
				c0.6,1-0.1,5.8-1.7,9.6c-1.6,3.8,0.8,3.8,0.8,3.8s2.5-6.3,5.3-6.9c2.8-0.7,3.7-3.1,3.7-1.9c0,1.2-0.2,2.8-0.3,7.7
				c0,4.8,4.3,8.1,4.3,8.1s-0.7-4-1.2-8c-0.5-4,3.5-4.1,3.5-4.1s3.9,2,5,5.3c0.6,1.6,0.3,3.1-0.1,4.3c1-2.1,2.3-5.1,1.9-6.4
				c-0.6-2.1-0.5-4,1.9-6.6c2.4-2.6,2.5-5.9,2.5-5.9s-0.1,5-0.4,8.1c-0.3,3.1,0.7,6.6,2.2,9.6c1.5,3,3.8,10.6,3.8,10.6l0.4-2.4
				c0,0,0.6-5.6-0.9-8.4c-1.4-2.8-0.9-5.6,1.4-8.3c2.3-2.7,2.6-5.6,3.3-8.9c0.7-3.3,3.3-3.8,3.3-3.8s1.3,3.5,0.2,6.9
				c-1.2,3.4-4,6.5-4,6.5s4-2.7,6.7-4.3c2.7-1.6,2.7-6.7,2.7-6.7s2,5,3.2,8.3c1.1,3.3,0.3,7.4-1.4,12.7c-1.7,5.3-1,8.9-1,8.9
				s1.9-4.5,4.2-7c2.3-2.5,5-5.2,5.9-9.8c0.9-4.6-0.6-7.4-1.5-10.4c-0.9-3.1,1.3-2.4,1.3-2.4s3.8,7.9,4.4,8.7c0.6,0.8-0.3-2.2-1.5-6
				c-1.2-3.8,2.2-5.4,1-9.7c-1.2-4.2,1.8-7.3,2.2-11.8c0.4-4.6,0-7.9-0.3-11.8c-0.3-3.9,2.7-10.1,4.2-14.6c1.5-4.5,1-14.1,2-13.9
				c1,0.2,3.6,1.1,3.9,0.1c-0.4,2.8-3.1,9.3-3.6,13.2c-0.6,4.7-0.2,12.1,1.5,18.9c1.7,6.8,7.7,17.4,7.7,19c0,0.7-2.9,6.6-6,12.7
				c-1.6,0.8-3.2,1.6-4.7,2.8c-4.1,3-6.5,8.9-8.2,15.6c-10.4,3.3-24,16.4-33.2,22.8c-10,7-23.7,16.2-30.7,19.4
				c-7,3.3-8.9,7.7-11.8,12.6c-2.8,4.9,0.2,30,3.9,40.5c3.8,10.5,6.6,23.5,7.5,30.2c0.9,6.7,6.8,13.7,9.6,16.9
				c2.8,3.2,7.1,0.8,7.1,0.8s6.1,5,10.1,2.4c0,0,1.3,1.7,6.1-0.3c4.8-2.1,4.8-2.1,4.8-2.1s0.9-0.5,4-2.4c3.1-2,1.5-5.9-1.8-10.3
				c-3.3-4.4-6.2-14.5-11.5-16.5c-5.3-2-9.9-4-9.9-4s-3.6-16.8-3.2-25.7c0.4-8.9,0.6-21.3,0.6-21.3s3.9-4.5,16.2-8.6
				c8.7-2.9,18.8-10.2,27.9-16.6c-0.2,7.7-0.1,15,0.1,19.1c0.6,8.1,7.7,24.5,11.6,33.8c3.9,9.4,6.3,11.9,6.5,23.2
				c0.1,6.4-5.5,16.4-10.4,23.8c0,0-7.5,6.2-13.4,13.4c-6,7.2-13.9,18.8-14.8,38.5c-1,19.8-8.9,32.7-12.7,53.7
				c-3.8,21-14.8,54.3-19.4,61.2c-4.6,6.9-22.5-0.4-29.1-0.6c-6.6-0.2-40.7,1.5-63.9,6c-23.2,4.5-30.1,0.8-30.4,0.3
				c0,0-10.4-10.8-15.6-15.1c-5.2-4.3-12.7-4.8-18.6,2.8c-6,7.6-12.7,16.9-16.4,25.8c-3.6,8.9-12.8,13-19.5,31.4
				c-6.7,18.4-2,30.4-0.6,35c1.5,4.6,8.1,3.7,12.9,2.8c4.9-0.9,9.1-5.5,11.9-11.3c2.8-5.8,11.1-12.7,18.2-16.5
				c7.1-3.8,16.5-11,18.8-15.6c0.6-1.3,0.9-2,0.9-2.6c4.2-0.9,8.8-2,12.2-3.3c8.6-3.2,25.7-5.1,41-2.1c15.2,3,45,4.2,63.7,6.3
				S371,650,381,645c10-5,25.3-20.6,39.1-49.6c10.4-21.9,28.1-44.6,40.3-60.7c9.7,5,20.2,10.2,26.1,12.7
				c12.5,5.2,36.3,14.1,49.1,15.7c12.8,1.5,14.4,7.1,18,9.4c3.6,2.3,1.8,6.7,1.8,6.7s-8.5,10.6-14.5,25.7s-4.7,20.9-8,38.5
				c-3.3,17.6-7,32.8-9.6,40.4c-1.2,3.7-3.7,8.4-5.9,12.4c-0.7,0-1.4,0.1-2.4,0.3c-4.2,1-9.3,6.6-13.9,10.8
				c-4.6,4.2-6.7,5.5-10.3,7.9c-3.6,2.3-4.1,6-2.6,8.9c1.5,2.9,9.6,10.8,18.4,16.4c8.9,5.6,10.7,12.2,22.8,21.9
				c12,9.7,29.4,13.1,37.4,16.3c8,3.2,9.8,0.9,12-2.1c2.2-3.1,2.2-3.3-1.8-11.1c-4-7.8-12.2-18.6-17.5-29.5
				c-5.2-10.9-9.7-22.3-13.2-24.7c1-7.3,3.2-20.8,6.6-30.8C557.7,666.1,578.4,630.2,584.2,614.8z"/>
		</defs>
		<clipPath id="XMLID_4_">
			<use xlink:href="#XMLID_240_"  style="overflow:visible;"/>
		</clipPath>
		<g id="XMLID_330_" class="st44">
			<path id="XMLID_332_" class="st45" d="M584.2,614.8c5.7-15.4,15.2-31.1,16.9-42.7s-0.2-20.4-16.3-32.8c-16-12.4-49.5-37.8-67-46
				c-12.1-5.6-22.2-11.9-27.3-15.3c2.2-6.3,6.8-21.4,5.1-34.7c-1.2-9.8-0.3-36.9-0.6-47.6c0-1.1-0.1-2-0.1-2.9
				c5.5,6.5,10.1,11.9,12.6,13.3c4.8,2.9,11.7,7.3,15.2,2.3c3.5-5,12.9-17.1,20-32.3c7.1-15.2,9.4-26.5,13.3-34.2
				c3.8-7.7,3.8-7.7,9.6-20.2c5.8-12.5,6.7-17.3,2.7-23.6c-4-6.3-8.8-5.4-12.2-11.1c-3.4-5.7-6.8-2.7-6.8-2.7
				c-3.3-5-8.5,2.5-8.5,2.5s-5.8-6.7-4.6-2.3c1.2,4.4,2.9,11.5,2.1,20.8c-0.8,9.2,4.4,18.2,4.4,18.2s-6.1,19.9-12.6,28.2
				C523.4,359.8,514,370,514,370s-2.5-3.6-7.5-12.2c0.4-2.2,0.7-4.4,0.6-6.9c-0.4-14.5-30.3-52.9-35-59.5c-0.6-0.9-1.5-1.8-2.6-2.7
				c3.2-3.9,8.4-10,9.5-10.5c1.6-0.8,7.5,2,10.1,2.9c2.6,0.9,8.6,1.4,10.7,0.3c2.1-1.1,3-4.7,3.8-7.6c0.7-2.9,1.7-2.7,3.2-4.8
				c1.5-2.1,0.3-3.1,0.3-3.1s2.3-2.2,1.8-3.5c-0.5-1.2,0.5-4.1,0.5-4.1s4.7,0.4,6.3-2.3c1.6-2.8-2.5-9.4-4-12
				c-1.5-2.7-2.6-3.9-1.4-10.5c1.1-6.6-0.1-15.2-1.6-19.7c-1.5-4.5-3.4-8.5-9.7-13.8c-6.4-5.3-25.9-12.8-37-10
				c-11.1,2.8-15.7,8.7-19.3,10.2l-6.2,3.3c0,0-5.3-4.3-5.4-4.3c-3.1-2.5-6.5-9.6-12.8-8.6c-6.3,1-7.4,3.5-9.8,6.1
				c-2.3,2.7-10.7-0.6-10.7-0.6s-7.2-1-12.9,0c-5.6,1.1-6.6,2.5-11.8,1.5c-5.2-1.1-11.5,1.5-11.5,1.5s3.5-0.5,7.8,0.7
				s3.3,3.2,3.3,3.2l-6.2,1.2c0,0-3.9,0.7-7.5-0.8c-3.6-1.6-8.7,1.9-8.7,1.9s6-0.3,10.6,1.3c3.4,1.2,6.2,0.3,7.5-0.2l-6.6,3.1
				c0,0-9.2,2.7-13,3.2c-3.8,0.5-10.5,6.2-12.2,10.6c-1.7,4.4-2.2,4.2-2,9.6c0.2,5.4-4.9,10.6-4.9,10.6s1.1-0.8,4.1-3.1
				c3.1-2.3,3.1-5.9,5.6-7.6c2.4-1.7,6.3-0.7,6.3-0.7s-1.4,2.7-5.1,4.6c-3.7,1.9-4.4,6.1-4.4,6.1s3.8-5.5,7.6-6.6
				c3.9-1.1,2.2-1,6.1-3.2c3.9-2.1,4-3.9,5.4-5.7c1.4-1.8,6.5-0.3,6.5-0.3s-4.6,3.2-7.2,6.1c-2.5,2.9-3.4,6.1-5.2,7.9
				c-1.8,1.8-3.2,3-4,6c-0.8,3.1-0.7,5.5-5.6,7.3c-4.9,1.8-7,6.8-7,6.8s2.5-2.9,8-2c5.5,0.9,4.9-5.3,4.9-5.3l0.8,4.1
				c0,0,1.1,5.1,3.4,9.7c2.3,4.6,4,4.1,4.7,8.3c0.7,4.2,1.7,7.3,1.7,7.3s-0.3-3.1,2.3-4.4c2.6-1.2,2.8-3.7,3.4-2.8
				c0.6,1-0.1,5.8-1.7,9.6c-1.6,3.8,0.8,3.8,0.8,3.8s2.5-6.3,5.3-6.9c2.8-0.7,3.7-3.1,3.7-1.9c0,1.2-0.2,2.8-0.3,7.7
				c0,4.8,4.3,8.1,4.3,8.1s-0.7-4-1.2-8c-0.5-4,3.5-4.1,3.5-4.1s3.9,2,5,5.3c0.6,1.6,0.3,3.1-0.1,4.3c1-2.1,2.3-5.1,1.9-6.4
				c-0.6-2.1-0.5-4,1.9-6.6c2.4-2.6,2.5-5.9,2.5-5.9s-0.1,5-0.4,8.1c-0.3,3.1,0.7,6.6,2.2,9.6c1.5,3,3.8,10.6,3.8,10.6l0.4-2.4
				c0,0,0.6-5.6-0.9-8.4c-1.4-2.8-0.9-5.6,1.4-8.3c2.3-2.7,2.6-5.6,3.3-8.9c0.7-3.3,3.3-3.8,3.3-3.8s1.3,3.5,0.2,6.9
				c-1.2,3.4-4,6.5-4,6.5s4-2.7,6.7-4.3c2.7-1.6,2.7-6.7,2.7-6.7s2,5,3.2,8.3c1.1,3.3,0.3,7.4-1.4,12.7c-1.7,5.3-1,8.9-1,8.9
				s1.9-4.5,4.2-7c2.3-2.5,5-5.2,5.9-9.8c0.9-4.6-0.6-7.4-1.5-10.4c-0.9-3.1,1.3-2.4,1.3-2.4s3.8,7.9,4.4,8.7c0.6,0.8-0.3-2.2-1.5-6
				c-1.2-3.8,2.2-5.4,1-9.7c-1.2-4.2,1.8-7.3,2.2-11.8c0.4-4.6,0-7.9-0.3-11.8c-0.3-3.9,2.7-10.1,4.2-14.6c1.5-4.5,1-14.1,2-13.9
				c1,0.2,3.6,1.1,3.9,0.1c-0.4,2.8-3.1,9.3-3.6,13.2c-0.6,4.7-0.2,12.1,1.5,18.9c1.7,6.8,7.7,17.4,7.7,19c0,0.7-2.9,6.6-6,12.7
				c-1.6,0.8-3.2,1.6-4.7,2.8c-4.1,3-6.5,8.9-8.2,15.6c-10.4,3.3-24,16.4-33.2,22.8c-10,7-23.7,16.2-30.7,19.4
				c-7,3.3-8.9,7.7-11.8,12.6c-2.8,4.9,0.2,30,3.9,40.5c3.8,10.5,6.6,23.5,7.5,30.2c0.9,6.7,6.8,13.7,9.6,16.9
				c2.8,3.2,7.1,0.8,7.1,0.8s6.1,5,10.1,2.4c0,0,1.3,1.7,6.1-0.3c4.8-2.1,4.8-2.1,4.8-2.1s0.9-0.5,4-2.4c3.1-2,1.5-5.9-1.8-10.3
				c-3.3-4.4-6.2-14.5-11.5-16.5c-5.3-2-9.9-4-9.9-4s-3.6-16.8-3.2-25.7c0.4-8.9,0.6-21.3,0.6-21.3s3.9-4.5,16.2-8.6
				c8.7-2.9,18.8-10.2,27.9-16.6c-0.2,7.7-0.1,15,0.1,19.1c0.6,8.1,7.7,24.5,11.6,33.8c3.9,9.4,6.3,11.9,6.5,23.2
				c0.1,6.4-5.5,16.4-10.4,23.8c0,0-7.5,6.2-13.4,13.4c-6,7.2-13.9,18.8-14.8,38.5c-1,19.8-8.9,32.7-12.7,53.7
				c-3.8,21-14.8,54.3-19.4,61.2c-4.6,6.9-22.5-0.4-29.1-0.6c-6.6-0.2-40.7,1.5-63.9,6c-23.2,4.5-30.1,0.8-30.4,0.3
				c0,0-10.4-10.8-15.6-15.1c-5.2-4.3-12.7-4.8-18.6,2.8c-6,7.6-12.7,16.9-16.4,25.8c-3.6,8.9-12.8,13-19.5,31.4
				c-6.7,18.4-2,30.4-0.6,35c1.5,4.6,8.1,3.7,12.9,2.8c4.9-0.9,9.1-5.5,11.9-11.3c2.8-5.8,11.1-12.7,18.2-16.5
				c7.1-3.8,16.5-11,18.8-15.6c0.6-1.3,0.9-2,0.9-2.6c4.2-0.9,8.8-2,12.2-3.3c8.6-3.2,25.7-5.1,41-2.1c15.2,3,45,4.2,63.7,6.3
				S371,650,381,645c10-5,25.3-20.6,39.1-49.6c10.4-21.9,28.1-44.6,40.3-60.7c9.7,5,20.2,10.2,26.1,12.7
				c12.5,5.2,36.3,14.1,49.1,15.7c12.8,1.5,14.4,7.1,18,9.4c3.6,2.3,1.8,6.7,1.8,6.7s-8.5,10.6-14.5,25.7s-4.7,20.9-8,38.5
				c-3.3,17.6-7,32.8-9.6,40.4c-1.2,3.7-3.7,8.4-5.9,12.4c-0.7,0-1.4,0.1-2.4,0.3c-4.2,1-9.3,6.6-13.9,10.8
				c-4.6,4.2-6.7,5.5-10.3,7.9c-3.6,2.3-4.1,6-2.6,8.9c1.5,2.9,9.6,10.8,18.4,16.4c8.9,5.6,10.7,12.2,22.8,21.9
				c12,9.7,29.4,13.1,37.4,16.3c8,3.2,9.8,0.9,12-2.1c2.2-3.1,2.2-3.3-1.8-11.1c-4-7.8-12.2-18.6-17.5-29.5
				c-5.2-10.9-9.7-22.3-13.2-24.7c1-7.3,3.2-20.8,6.6-30.8C557.7,666.1,578.4,630.2,584.2,614.8z M354.6,243.2c0,0,2.5-3.2,5.5-6.3
				c3-3,8-5.5,8.8-7.5c0,0-0.9,3.7-3.4,5.1c-2.4,1.4-3,1.9-5.1,7c-2.1,5.1-9.2,5-9.2,5L354.6,243.2z M356.2,277.5
				c0,0,0.4-3.5-0.7-6.6c-1.1-3.1-0.2-4.2,0.9-6.1l0.1,0.8c0,0,0,1.8,1,5.4C358.4,274.6,356.2,277.5,356.2,277.5z M362.8,251.2
				c-3.4,2.9-6.8,1.4-9.8,2.7c-3.1,1.3-1.9,8.4-1.9,8.4s-3-7-2.1-9.2c0.9-2.2,4.5-3.7,9.2-4.7c4.7-1.1,9.5-3.7,10.6-6.1
				C368.7,242.3,366.2,248.3,362.8,251.2z M376.7,273.4c-0.7,4-4.5,8.3-4.5,8.3s1.7-4.3,2-8.2c0.2-3.9,2.9-9,4.9-10.4
				C379.1,263.1,377.5,269.3,376.7,273.4z M386.8,259.7c0,0-1,4.4-2.1,9.2c-1.1,4.8-5.2,7.3-5.2,7.3s1.4-1.9,3.1-6.3
				c1.8-4.4,1.2-4.8,1.5-8.9c0.2-4.1,3.2-4.8,3.9-7.4L386.8,259.7z M388.4,207.1c-5.7,0.5-10.2,2.8-10.2,2.8s2.3-4.2,6.8-5.4
				c4.5-1.1,9.8-0.6,12.2-2.5C397.1,201.9,394,206.6,388.4,207.1z M402,256c0,0-1.1,3-0.8,6.7c0.3,3.6-2.1,6.1-2.1,6.1
				s0-5.4-1.2-8.3c-1.1-2.9,2.8-4.7,5.7-6.4L402,256z M418.7,260.8c-0.8,3.2-0.9,11-0.9,11s-1.1-4.4-1.3-8.3
				c-0.2-3.9,2.7-7.8,1.8-11.6C418.3,251.9,419.5,257.6,418.7,260.8z"/>
			<path id="XMLID_331_" class="st45" d="M381.4,294c-0.6,1.3-1.2,2.2-1.2,2.2S380.9,295.4,381.4,294z"/>
		</g>
		<path id="XMLID_325_" class="st46" d="M424.8,297.5c0,0-9.9,32.2,29.1,40"/>
		<path id="XMLID_324_" class="st46" d="M467.3,288.5c12.4,13.4,13.5,26.9,16.7,32.9c3.3,6,14.6,22.7,20.8,33.4
			c6.2,10.8,9.2,15.2,9.2,15.2s9.4-10.2,15.9-18.5c6.5-8.3,12.6-28.2,12.6-28.2s-5.2-8.9-4.4-18.2c0.8-9.2-1-16.3-2.1-20.8
			c-1.2-4.4,4.6,2.3,4.6,2.3s5.2-7.5,8.5-2.5c0,0,3.4-3,6.8,2.7c3.4,5.7,8.2,4.8,12.2,11.1c4,6.3,3.1,11.1-2.7,23.6
			c-5.8,12.5-5.8,12.5-9.6,20.2c-3.8,7.7-6.1,19-13.3,34.2c-7.1,15.2-16.5,27.3-20,32.3c-3.5,5-10.4,0.6-15.2-2.3
			c-4.8-2.9-17.7-20.4-29-32.3c-11.3-11.9-19.2-32.7-31.9-44.8c-12.7-12.1-22.1-21.1-21.7-31.5C425.2,287.1,446.7,266.2,467.3,288.5
			z"/>
		<path id="XMLID_320_" class="st46" d="M380.3,538.7c0,0,35.2,22,68.9,27.6"/>
		<path id="XMLID_319_" class="st46" d="M454.8,546.8c0,0,33.8-59.5,41.5-78.4"/>
		<path id="XMLID_318_" class="st46" d="M531.8,492.7c0,0-0.5,56.4-31.1,76.9"/>
		<path id="XMLID_317_" class="st46" d="M243.7,593.9c-0.4,6.9-9.3,20.1-12.3,31.4c-3,11.3,1.9,15.1,1.3,24.2"/>
		<path id="XMLID_316_" class="st46" d="M223,585.7c0,0-12.8,11.3-19.3,23.5c-6.5,12.2-8.7,19.6-18.6,31
			c-9.9,11.4-8.8,21.3-9.1,34.5c-0.3,13.2,7.6,25.2,7.6,25.2"/>
		<path id="XMLID_315_" class="st46" d="M507.8,695.6c8.2-2.4,9.3-2.3,20.7,8.8c11.4,11.1,21.5-3.8,30.2,3.1"/>
		<path id="XMLID_314_" class="st46" d="M588.3,776.5c0,0-21.3-10-38.3-14.5c-16.9-4.5-22.9-19.8-36.6-30.5
			c-13.7-10.6-17.5-13.7-18.1-22.4"/>
		<g id="XMLID_236_" class="st44">
			<path id="XMLID_313_" class="st47" d="M277.5,169.5l-6.2,97.8l104-91.6L277.5,169.5z"/>
			<path id="XMLID_312_" class="st48" d="M271.3,267.3l97.8,6.2l6.2-97.8L271.3,267.3z"/>
			<path id="XMLID_311_" class="st49" d="M375.3,175.6l-6.2,97.8l104-91.6L375.3,175.6z"/>
			<path id="XMLID_310_" class="st50" d="M369.2,273.5l97.8,6.2l6.2-97.8L369.2,273.5z"/>
			<path id="XMLID_309_" class="st51" d="M662.6,292l6.2-97.8L571,188L662.6,292z"/>
			<path id="XMLID_308_" class="st52" d="M564.8,285.8l97.8,6.2L571,188L564.8,285.8z"/>
			<path id="XMLID_307_" class="st53" d="M473.2,181.8l-6.2,97.8L571,188L473.2,181.8z"/>
			<path id="XMLID_306_" class="st54" d="M467,279.7l97.8,6.2L571,188L467,279.7z"/>
			<path id="XMLID_305_" class="st55" d="M271.3,267.3l-6.2,97.8l104-91.6L271.3,267.3z"/>
			<path id="XMLID_304_" class="st56" d="M265.1,365.1l97.8,6.2l6.2-97.8L265.1,365.1z"/>
			<path id="XMLID_303_" class="st57" d="M369.2,273.5l-6.2,97.8l104-91.6L369.2,273.5z"/>
			<path id="XMLID_302_" class="st58" d="M363,371.3l97.8,6.2l6.2-97.8L363,371.3z"/>
			<path id="XMLID_301_" class="st59" d="M467,279.7l-6.2,97.8l104-91.6L467,279.7z"/>
			<path id="XMLID_299_" class="st60" d="M460.8,377.5l97.8,6.2l6.2-97.8L460.8,377.5z"/>
			<path id="XMLID_298_" class="st61" d="M564.8,285.8l-6.2,97.8l104-91.6L564.8,285.8z"/>
			<path id="XMLID_297_" class="st62" d="M558.6,383.7l97.8,6.2l6.2-97.8L558.6,383.7z"/>
			<path id="XMLID_296_" class="st63" d="M650.3,487.7l6.2-97.8l-97.8-6.2L650.3,487.7z"/>
			<path id="XMLID_295_" class="st64" d="M552.4,481.5l97.8,6.2l-91.6-104L552.4,481.5z"/>
			<path id="XMLID_294_" class="st56" d="M552.4,481.5l6.2-97.8l-97.8-6.2L552.4,481.5z"/>
			<path id="XMLID_293_" class="st65" d="M454.6,475.3l97.8,6.2l-91.6-104L454.6,475.3z"/>
			<path id="XMLID_292_" class="st66" d="M454.6,475.3l6.2-97.8l-97.8-6.2L454.6,475.3z"/>
			<path id="XMLID_291_" class="st67" d="M356.8,469.1l97.8,6.2l-91.6-104L356.8,469.1z"/>
			<path id="XMLID_290_" class="st68" d="M356.8,469.1l6.2-97.8l-97.8-6.2L356.8,469.1z"/>
			<path id="XMLID_289_" class="st69" d="M259,462.9l97.8,6.2l-91.6-104L259,462.9z"/>
			<path id="XMLID_288_" class="st64" d="M644.1,585.5l6.2-97.8l-97.8-6.2L644.1,585.5z"/>
			<path id="XMLID_287_" class="st70" d="M546.3,579.3l97.8,6.2l-91.6-104L546.3,579.3z"/>
			<path id="XMLID_286_" class="st71" d="M161.1,456.8l-6.2,97.8l104-91.6L161.1,456.8z"/>
			<path id="XMLID_285_" class="st72" d="M154.9,554.6l97.8,6.2l6.2-97.8L154.9,554.6z"/>
			<path id="XMLID_284_" class="st69" d="M259,462.9l-6.2,97.8l104-91.6L259,462.9z"/>
			<path id="XMLID_283_" class="st73" d="M252.8,560.8l97.8,6.2l6.2-97.8L252.8,560.8z"/>
			<path id="XMLID_282_" class="st74" d="M546.3,579.3l6.2-97.8l-97.8-6.2L546.3,579.3z"/>
			<path id="XMLID_281_" class="st75" d="M448.4,573.1l97.8,6.2l-91.6-104L448.4,573.1z"/>
			<path id="XMLID_280_" class="st76" d="M356.8,469.1l-6.2,97.8l104-91.6L356.8,469.1z"/>
			<path id="XMLID_279_" class="st77" d="M350.6,567l97.8,6.2l6.2-97.8L350.6,567z"/>
			<path id="XMLID_278_" class="st78" d="M154.9,554.6l-6.2,97.8l104-91.6L154.9,554.6z"/>
			<path id="XMLID_277_" class="st79" d="M148.8,652.4l97.8,6.2l6.2-97.8L148.8,652.4z"/>
			<path id="XMLID_276_" class="st58" d="M252.8,560.8l-6.2,97.8l104-91.6L252.8,560.8z"/>
			<path id="XMLID_273_" class="st80" d="M246.6,658.6l97.8,6.2l6.2-97.8L246.6,658.6z"/>
			<path id="XMLID_267_" class="st81" d="M350.6,567l-6.2,97.8l104-91.6L350.6,567z"/>
			<path id="XMLID_262_" class="st82" d="M344.4,664.8l97.8,6.2l6.2-97.8L344.4,664.8z"/>
			<path id="XMLID_252_" class="st78" d="M448.4,573.1l-6.2,97.8l104-91.6L448.4,573.1z"/>
			<path id="XMLID_251_" class="st83" d="M442.2,671l97.8,6.2l6.2-97.8L442.2,671z"/>
			<path id="XMLID_250_" class="st67" d="M546.3,579.3l-6.2,97.8l104-91.6L546.3,579.3z"/>
			<path id="XMLID_249_" class="st84" d="M540.1,677.2l97.8,6.2l6.2-97.8L540.1,677.2z"/>
			<path id="XMLID_248_" class="st85" d="M148.8,652.4l-6.2,97.8l104-91.6L148.8,652.4z"/>
			<path id="XMLID_247_" class="st70" d="M142.6,750.2l97.8,6.2l6.2-97.8L142.6,750.2z"/>
			<path id="XMLID_246_" class="st74" d="M442.2,671l-6.2,97.8l104-91.6L442.2,671z"/>
			<path id="XMLID_245_" class="st86" d="M436.1,768.8l97.8,6.2l6.2-97.8L436.1,768.8z"/>
			<path id="XMLID_244_" class="st87" d="M540.1,677.2l-6.2,97.8l104-91.6L540.1,677.2z"/>
			<path id="XMLID_243_" class="st86" d="M533.9,775l97.8,6.2l6.2-97.8L533.9,775z"/>
			<path id="XMLID_242_" class="st88" d="M246.6,658.6l-6.2,97.8l104-91.6L246.6,658.6z"/>
			<path id="XMLID_241_" class="st89" d="M240.4,756.4l97.8,6.2l6.2-97.8L240.4,756.4z"/>
			<path id="XMLID_238_" class="st88" d="M436.1,768.8l6.2-97.8l-97.8-6.2L436.1,768.8z"/>
			<path id="XMLID_237_" class="st90" d="M338.2,762.6l97.8,6.2l-91.6-104L338.2,762.6z"/>
		</g>
	</g>
	<g id="XMLID_192_">
		<defs>
			<path id="XMLID_261_" d="M984.8,554.4c-5.4,0.9-11.8,7.2-24.4,10.9c-12.6,3.7-25.5,6-31,2c-5.4-4-9.5-1.4-13.5-4.3
				c-4-2.9-16.3-20.3-22.9-32.7c-6.6-12.3-19.5-37-26.7-52.7c-7.2-15.8-12-22.4-13.2-33.8c-1.1-11.5-8-16-13.2-19.8
				c-4.6-3.3-10.2-8.5-14.6-13.1c1.9-1.3,1.9-1.3,1.9-1.3s-10-14.6-22.6-24.9c-12.6-10.3-32.4-32.3-37.3-39
				c-1.8-2.5-3.4-4.9-4.7-7.1c0.2-0.8,0.4-1.6,0.7-2.4c3-7.3-2.1-9.5-0.4-13.8c1.7-4.3,17.2-36.5,25.8-55c2.6-5.6,4.4-9.8,5.8-13.1
				c0,0,4,2.4,13.6,1.3c14.6,22.2,19.8,40.7,29.8,46c10.5,5.7,23.9-8,34.6-17.5c10.7-9.5,32.3-37.4,36.1-38.7
				c3.8-1.2,11.4-5.2,17.6-12.2c6.3-7.1,8.8-8.5,8.4-12.1c-0.4-3.6-2-4.3-2-4.3s2.3-1.7,2.1-5.1c-0.2-3.3-2.5-6-2.5-6
				s2.3-2.6-1.4-7.1c0,0-1.5-5.8-4.4-6.2c-3-0.4-6,4.7-11.5,9.1c-5.5,4.4-13.3,10.2-13.3,10.2s-1.1-2,0.2-6.5
				c1.4-4.5-0.7-10.7-3.7-11.9c0,0-1.3-1.4-2.5,3.4c-1.2,4.8-2.4,12.7-4.2,18.5c-1.8,5.8-0.1,13.6,1.3,16.3c0,0-9.5,10.1-14.5,15
				s-10.4,4.9-15.5,7.4c-5.1,2.5-11,6.5-11,6.5s-2.9-7.2-6.3-14.4c-0.5-1.2-1-2.2-1.4-3.1c0.8-0.4,1.3-0.7,1.3-0.7
				s-10.6-22.3-11.8-32.6c-1.2-10.3-1.8-25.8-9.8-33.6c-3.4-3.3-7-6.2-10.8-8.1c-3.7-5.4-7.9-8.4-12.8-10.6
				c4.1-0.7,9.8-1.6,12.1-1.2c3.8,0.6,7.7,3.5,10.5,3c2.9-0.5,4.3-4.6,5.7-6.4c1.4-1.8,1.8-2.5,3.1-2.7c1.3-0.1,1.8-3.7,1.8-3.7
				s2-1.3,2.1-3.1c0.1-1.8,0-3,0.9-4.1c0.9-1.1,4.9-0.5,6.1-1.1c1.3-0.6,2.7-0.6,1.9-3.2c-0.8-2.5-2.4-7.5-2.9-10.2
				c-0.5-2.7,2.8-8,3.7-15.9c0.9-7.9-0.4-20.1-3.6-26.3c-5.8-11.1-24.1-20-41.2-18.7c-17.1,1.2-24.1,11.1-27.7,20.5
				c-3.6,9.4-4.2,24.9,0.3,33.2c3.4,6.2-2.1,18.6-5,24.3c-3.1-1.5-5.1-2.5-5.1-2.5s-15.5,1.7-30.5,5.6c-3.3,0.9-6.2,1.8-8.8,3
				c-5.9,0.1-13.8,2.5-21.9,3.6c-10.9,1.5-23.1,2.3-26.3,3.6c-1.3,0.5-2,1.3-2.4,2.5c-7.1,1.1-17.5,2.7-25,3.6
				c-12.3,1.5-18.6-0.7-24.3,4.2c-5.7,4.9-16.6,13.2-30,25.3c-13.4,12.1-32,36-37.2,39.9c-5.2,3.9-8.1,1.6-17.8,9.1
				c-3.7,2.9-8.8,7.1-11.3,8.6c-2.5,1.5-5.1,3.3-6.6,7.7c-1.5,4.4-3.7,7.9-2.3,8.6c1.5,0.7,3.4-0.9,4.2-3.8c0.8-2.9,4.2-5.1,5.5-5.9
				c1.3-0.7-2.2,3.6-3.9,6.8c-1.7,3.2-3.7,6.3-5.2,9.2c-1.5,2.9-0.7,5.1,0.8,5.2c1.5,0,3.2-3.1,4.7-6c1.5-2.9,4.4-4.9,6.9-6.9
				c2.5-2,4-2.8,5.1-1.7c1.1,1.1-6.8,9.1-9.8,11.7c-3,2.6-5.6,7-6.4,8.7c-0.8,1.7,2.1,3.8,3.8,2.3c1.6-1.6,3.2-4.9,5.8-6.8
				c2.6-1.9,9.2-8.2,10.6-9.2c1.4-1,2,0.1,0.3,2.7c-1.7,2.6-4.9,7.3-7.7,9.4c-2.8,2-5.7,3.2-4.6,5.8c1.1,2.6,3.8,1.5,6.1-1.2
				c2.3-2.7,8-6,10.3-9c2.2-3,9.4-8.5,11-9.6c1.6-1.1,2.2,0.6,1,5.2c-1.3,4.6-2.1,7.8,0.1,10.7c2.2,2.9,4.1,1.6,4.7-2.7
				c0.6-4.3,3.2-11,4.8-16.3c1.6-5.4,2.8-15.4,2.8-15.4s18.1-23.3,34-29.6c15.8-6.3,41.2-28.3,41.2-28.3s24.7,0.9,34.2,0.8
				c1.5,0,2.8,0,3.9,0c3.1,4.4,4.3,6,4.3,6s3,0.1,7.2,0.1c-4.1,18-4.8,37.1-3.9,46c1.3,12.5-5.2,24.1-5.2,33.5
				c0,9.5-12.5,24.1-22.4,32c-9.9,7.9-12,18.7-12,18.7c-3.7,4-9.7,14.3-10,24.1c-0.3,9.7-1.7,16.3-3.7,21.8
				c-2,5.4-8.3,15.2-13.9,26.4c-5.6,11.2-17.5,29.5-20.9,35.3c-0.2,1.2,0.2,2.4,1.6,4c-3.6,4.2-7.2,8.4-9.4,10.8
				c-5.3,5.7-5.1,2.2-12,0.3c-6.9-1.8-27.1-15-66.2-14.6c-30.9,0.3-63.7-5-69.9-9.6c-6.2-4.6-19.6-15.8-28.5-16.7
				c0,0-8.9-2.3-13.5,9.8c-4.7,12.1-7.8,35.3-14.2,50.8c-6.4,15.5-4.8,30.7,0.6,43.1c5.4,12.4,15.4,9.1,19.5,3.6
				c4.1-5.4,11.9-23.8,18.3-31.4c6.4-7.5,15.8-12.7,17.5-15.9c1.7-3.1,3.3-4.8,3.3-4.8s37.5,5.1,59.2,11.4
				c21.8,6.3,50.7,10,67.4,18.5c16.7,8.5,26.9,3.5,37.3,0.3c7.5-2.3,31.2-18.4,48.4-31c2.8,1.2,5.1,2.5,7,3.9c6.3,4.9,6,3.4,6,2.6
				c0-0.9,17.5-15.8,21.2-25.8c2.7-7.4,15.8-18.4,26.1-29.1c6.5,5.2,15.5,11.3,26.4,17.4c17.3,9.6,25.2,11.8,25.2,11.8
				s2.8-0.8,7.1-2.5c2.9,1.8,6,3.6,9,5c9.7,4.8,27.8,17.2,27.8,17.2s6.8,31.2,19.2,49c12.3,17.8,34.1,38.7,43.3,53
				c9.2,14.3,18.3,31.5,18.3,31.5c-0.9,4,2.6,10.9,6.6,18.6c4,7.7,7.5,15.8,10.3,14.9c2.9-0.9,26.9-16.9,48.1-34.7
				c21.2-17.8,32.7-36.7,32.7-36.7S990.3,553.5,984.8,554.4z"/>
		</defs>
		<clipPath id="XMLID_5_">
			<use xlink:href="#XMLID_261_"  style="overflow:visible;"/>
		</clipPath>
		<path id="XMLID_300_" class="st91" d="M984.8,554.4c-5.4,0.9-11.8,7.2-24.4,10.9c-12.6,3.7-25.5,6-31,2c-5.4-4-9.5-1.4-13.5-4.3
			c-4-2.9-16.3-20.3-22.9-32.7c-6.6-12.3-19.5-37-26.7-52.7c-7.2-15.8-12-22.4-13.2-33.8c-1.1-11.5-8-16-13.2-19.8
			c-4.6-3.3-10.2-8.5-14.6-13.1c1.9-1.3,1.9-1.3,1.9-1.3s-10-14.6-22.6-24.9c-12.6-10.3-32.4-32.3-37.3-39c-1.8-2.5-3.4-4.9-4.7-7.1
			c0.2-0.8,0.4-1.6,0.7-2.4c3-7.3-2.1-9.5-0.4-13.8c1.7-4.3,17.2-36.5,25.8-55c2.6-5.6,4.4-9.8,5.8-13.1c0,0,4,2.4,13.6,1.3
			c14.6,22.2,19.8,40.7,29.8,46c10.5,5.7,23.9-8,34.6-17.5c10.7-9.5,32.3-37.4,36.1-38.7c3.8-1.2,11.4-5.2,17.6-12.2
			c6.3-7.1,8.8-8.5,8.4-12.1c-0.4-3.6-2-4.3-2-4.3s2.3-1.7,2.1-5.1c-0.2-3.3-2.5-6-2.5-6s2.3-2.6-1.4-7.1c0,0-1.5-5.8-4.4-6.2
			c-3-0.4-6,4.7-11.5,9.1c-5.5,4.4-13.3,10.2-13.3,10.2s-1.1-2,0.2-6.5c1.4-4.5-0.7-10.7-3.7-11.9c0,0-1.3-1.4-2.5,3.4
			c-1.2,4.8-2.4,12.7-4.2,18.5c-1.8,5.8-0.1,13.6,1.3,16.3c0,0-9.5,10.1-14.5,15s-10.4,4.9-15.5,7.4c-5.1,2.5-11,6.5-11,6.5
			s-2.9-7.2-6.3-14.4c-0.5-1.2-1-2.2-1.4-3.1c0.8-0.4,1.3-0.7,1.3-0.7s-10.6-22.3-11.8-32.6c-1.2-10.3-1.8-25.8-9.8-33.6
			c-3.4-3.3-7-6.2-10.8-8.1c-3.7-5.4-7.9-8.4-12.8-10.6c4.1-0.7,9.8-1.6,12.1-1.2c3.8,0.6,7.7,3.5,10.5,3c2.9-0.5,4.3-4.6,5.7-6.4
			c1.4-1.8,1.8-2.5,3.1-2.7c1.3-0.1,1.8-3.7,1.8-3.7s2-1.3,2.1-3.1c0.1-1.8,0-3,0.9-4.1c0.9-1.1,4.9-0.5,6.1-1.1
			c1.3-0.6,2.7-0.6,1.9-3.2c-0.8-2.5-2.4-7.5-2.9-10.2c-0.5-2.7,2.8-8,3.7-15.9c0.9-7.9-0.4-20.1-3.6-26.3
			c-5.8-11.1-24.1-20-41.2-18.7c-17.1,1.2-24.1,11.1-27.7,20.5c-3.6,9.4-4.2,24.9,0.3,33.2c3.4,6.2-2.1,18.6-5,24.3
			c-3.1-1.5-5.1-2.5-5.1-2.5s-15.5,1.7-30.5,5.6c-3.3,0.9-6.2,1.8-8.8,3c-5.9,0.1-13.8,2.5-21.9,3.6c-10.9,1.5-23.1,2.3-26.3,3.6
			c-1.3,0.5-2,1.3-2.4,2.5c-7.1,1.1-17.5,2.7-25,3.6c-12.3,1.5-18.6-0.7-24.3,4.2c-5.7,4.9-16.6,13.2-30,25.3
			c-13.4,12.1-32,36-37.2,39.9c-5.2,3.9-8.1,1.6-17.8,9.1c-3.7,2.9-8.8,7.1-11.3,8.6c-2.5,1.5-5.1,3.3-6.6,7.7
			c-1.5,4.4-3.7,7.9-2.3,8.6c1.5,0.7,3.4-0.9,4.2-3.8c0.8-2.9,4.2-5.1,5.5-5.9c1.3-0.7-2.2,3.6-3.9,6.8c-1.7,3.2-3.7,6.3-5.2,9.2
			c-1.5,2.9-0.7,5.1,0.8,5.2c1.5,0,3.2-3.1,4.7-6c1.5-2.9,4.4-4.9,6.9-6.9c2.5-2,4-2.8,5.1-1.7c1.1,1.1-6.8,9.1-9.8,11.7
			c-3,2.6-5.6,7-6.4,8.7c-0.8,1.7,2.1,3.8,3.8,2.3c1.6-1.6,3.2-4.9,5.8-6.8c2.6-1.9,9.2-8.2,10.6-9.2c1.4-1,2,0.1,0.3,2.7
			c-1.7,2.6-4.9,7.3-7.7,9.4c-2.8,2-5.7,3.2-4.6,5.8c1.1,2.6,3.8,1.5,6.1-1.2c2.3-2.7,8-6,10.3-9c2.2-3,9.4-8.5,11-9.6
			c1.6-1.1,2.2,0.6,1,5.2c-1.3,4.6-2.1,7.8,0.1,10.7c2.2,2.9,4.1,1.6,4.7-2.7c0.6-4.3,3.2-11,4.8-16.3c1.6-5.4,2.8-15.4,2.8-15.4
			s18.1-23.3,34-29.6c15.8-6.3,41.2-28.3,41.2-28.3s24.7,0.9,34.2,0.8c1.5,0,2.8,0,3.9,0c3.1,4.4,4.3,6,4.3,6s3,0.1,7.2,0.1
			c-4.1,18-4.8,37.1-3.9,46c1.3,12.5-5.2,24.1-5.2,33.5c0,9.5-12.5,24.1-22.4,32c-9.9,7.9-12,18.7-12,18.7c-3.7,4-9.7,14.3-10,24.1
			c-0.3,9.7-1.7,16.3-3.7,21.8c-2,5.4-8.3,15.2-13.9,26.4c-5.6,11.2-17.5,29.5-20.9,35.3c-0.2,1.2,0.2,2.4,1.6,4
			c-3.6,4.2-7.2,8.4-9.4,10.8c-5.3,5.7-5.1,2.2-12,0.3c-6.9-1.8-27.1-15-66.2-14.6c-30.9,0.3-63.7-5-69.9-9.6
			c-6.2-4.6-19.6-15.8-28.5-16.7c0,0-8.9-2.3-13.5,9.8c-4.7,12.1-7.8,35.3-14.2,50.8c-6.4,15.5-4.8,30.7,0.6,43.1
			c5.4,12.4,15.4,9.1,19.5,3.6c4.1-5.4,11.9-23.8,18.3-31.4c6.4-7.5,15.8-12.7,17.5-15.9c1.7-3.1,3.3-4.8,3.3-4.8
			s37.5,5.1,59.2,11.4c21.8,6.3,50.7,10,67.4,18.5c16.7,8.5,26.9,3.5,37.3,0.3c7.5-2.3,31.2-18.4,48.4-31c2.8,1.2,5.1,2.5,7,3.9
			c6.3,4.9,6,3.4,6,2.6c0-0.9,17.5-15.8,21.2-25.8c2.7-7.4,15.8-18.4,26.1-29.1c6.5,5.2,15.5,11.3,26.4,17.4
			c17.3,9.6,25.2,11.8,25.2,11.8s2.8-0.8,7.1-2.5c2.9,1.8,6,3.6,9,5c9.7,4.8,27.8,17.2,27.8,17.2s6.8,31.2,19.2,49
			c12.3,17.8,34.1,38.7,43.3,53c9.2,14.3,18.3,31.5,18.3,31.5c-0.9,4,2.6,10.9,6.6,18.6c4,7.7,7.5,15.8,10.3,14.9
			c2.9-0.9,26.9-16.9,48.1-34.7c21.2-17.8,32.7-36.7,32.7-36.7S990.3,553.5,984.8,554.4z"/>
		<path id="XMLID_234_" class="st92" d="M713.4,424.8c0,0,47.9-51.6,53.3-95.4"/>
		<path id="XMLID_233_" class="st92" d="M649.2,316.5c13.8-8.4,32.1,12,64.2,20.6c32.1,8.6,75.9-3.4,75.9-3.4"/>
		<path id="XMLID_253_" class="st92" d="M674.7,469.5c0,0-13.7-6-36.5-15.2c-22.8-9.2-41.1-19.5-41.1-19.5"/>
		<path id="XMLID_254_" class="st92" d="M777.2,444.7c0,0,17-4.7,33.6-19.9c16.6-15.2,23.2-16.3,23.2-16.3"/>
		<path id="XMLID_255_" class="st92" d="M895.7,599.1c2.6-2,8-5.2,17.8-9.2c9.7-4-1.1-16.6,8.6-26.9"/>
		<path id="XMLID_257_" class="st92" d="M904.9,623.7c0.4-1.2,19.9-15.8,57.2-38.7c13.3-8.2,22.6-23.4,31.1-38.7"/>
		<path id="XMLID_256_" class="st92" d="M444.6,416.2c1.7,12.9-19.8,26.3-11.2,35.9c8.6,9.6,18.9,6.2,17.2,17.4"/>
		<path id="XMLID_258_" class="st92" d="M420.5,399.9c-3.4,18.1-11.2,39.5-19.8,58.5c-8.6,18.9-11.2,47.3,7.7,63.6"/>
		<path id="XMLID_260_" class="st92" d="M794.8,254.4c0,0,3.2-14.4-5.4-19.5c-8.6-5.2-12-29.2,0-44.7c12-15.5,24.9-21.5,40.4-19.8"
			/>
		<path id="XMLID_263_" class="st92" d="M803.6,257.6c0,0,27.9-2.1,51.2-23.6"/>
		<path id="XMLID_264_" class="st92" d="M671.2,152.7c0,0,3.6,26.1,11.7,41.3"/>
		<path id="XMLID_265_" class="st92" d="M691,204.3c0,0,17.9-52,35.1-61.9"/>
		<path id="XMLID_259_" class="st92" d="M762.3,137.2c0,0,30.5,17.2,41.3,21.5c10.7,4.3,14.2,6.4,14.2,6.4"/>
		<g id="XMLID_159_" class="st93">
			<path id="XMLID_232_" class="st94" d="M538.6,48.2v96.5L635,48.2H538.6z"/>
			<path id="XMLID_231_" class="st95" d="M538.6,144.7H635V48.2L538.6,144.7z"/>
			<path id="XMLID_230_" class="st96" d="M635,48.2v96.5l96.5-96.5H635z"/>
			<path id="XMLID_229_" class="st97" d="M635,144.7h96.5V48.2L635,144.7z"/>
			<path id="XMLID_228_" class="st98" d="M731.5,48.2v96.5l96.5-96.5H731.5z"/>
			<path id="XMLID_227_" class="st99" d="M731.5,144.7h96.5V48.2L731.5,144.7z"/>
			<path id="XMLID_226_" class="st100" d="M827.9,48.2v96.5l96.5-96.5H827.9z"/>
			<path id="XMLID_225_" class="st101" d="M827.9,144.7h96.5V48.2L827.9,144.7z"/>
			<path id="XMLID_224_" class="st102" d="M538.6,144.7v96.5l96.5-96.5H538.6z"/>
			<path id="XMLID_223_" class="st103" d="M538.6,241.1H635v-96.5L538.6,241.1z"/>
			<path id="XMLID_222_" class="st104" d="M635,144.7v96.5l96.5-96.5H635z"/>
			<path id="XMLID_221_" class="st105" d="M635,241.1h96.5v-96.5L635,241.1z"/>
			<path id="XMLID_220_" class="st106" d="M731.5,144.7v96.5l96.5-96.5H731.5z"/>
			<path id="XMLID_219_" class="st107" d="M731.5,241.1h96.5v-96.5L731.5,241.1z"/>
			<path id="XMLID_218_" class="st108" d="M827.9,144.7v96.5l96.5-96.5H827.9z"/>
			<path id="XMLID_217_" class="st109" d="M827.9,241.1h96.5v-96.5L827.9,241.1z"/>
			<path id="XMLID_216_" class="st110" d="M924.4,144.7v96.5l96.5-96.5H924.4z"/>
			<path id="XMLID_215_" class="st111" d="M924.4,241.1h96.5v-96.5L924.4,241.1z"/>
			<path id="XMLID_214_" class="st112" d="M1020.9,337.6v-96.5h-96.5L1020.9,337.6z"/>
			<path id="XMLID_213_" class="st113" d="M924.4,337.6h96.5l-96.5-96.5V337.6z"/>
			<path id="XMLID_212_" class="st105" d="M924.4,337.6v-96.5h-96.5L924.4,337.6z"/>
			<path id="XMLID_211_" class="st114" d="M827.9,337.6h96.5l-96.5-96.5V337.6z"/>
			<path id="XMLID_210_" class="st115" d="M827.9,337.6v-96.5h-96.5L827.9,337.6z"/>
			<path id="XMLID_209_" class="st116" d="M731.5,337.6h96.5l-96.5-96.5V337.6z"/>
			<path id="XMLID_208_" class="st117" d="M731.5,337.6v-96.5H635L731.5,337.6z"/>
			<path id="XMLID_207_" class="st118" d="M635,337.6h96.5L635,241.1V337.6z"/>
			<path id="XMLID_206_" class="st119" d="M635,337.6v-96.5h-96.5L635,337.6z"/>
			<path id="XMLID_205_" class="st120" d="M538.6,337.6H635l-96.5-96.5V337.6z"/>
			<path id="XMLID_204_" class="st110" d="M538.6,337.6v-96.5h-96.5L538.6,337.6z"/>
			<path id="XMLID_203_" class="st121" d="M442.1,337.6h96.5l-96.5-96.5V337.6z"/>
			<path id="XMLID_202_" class="st112" d="M345.7,337.6V434l96.5-96.5H345.7z"/>
			<path id="XMLID_201_" class="st122" d="M345.7,434h96.5v-96.5L345.7,434z"/>
			<path id="XMLID_200_" class="st123" d="M442.1,337.6V434l96.5-96.5H442.1z"/>
			<path id="XMLID_199_" class="st124" d="M442.1,434h96.5v-96.5L442.1,434z"/>
			<path id="XMLID_198_" class="st125" d="M538.6,337.6V434l96.5-96.5H538.6z"/>
			<path id="XMLID_197_" class="st126" d="M538.6,434H635v-96.5L538.6,434z"/>
			<path id="XMLID_196_" class="st118" d="M635,337.6V434l96.5-96.5H635z"/>
			<path id="XMLID_195_" class="st127" d="M635,434h96.5v-96.5L635,434z"/>
			<path id="XMLID_193_" class="st128" d="M924.4,434v-96.5h-96.5L924.4,434z"/>
			<path id="XMLID_189_" class="st129" d="M827.9,434h96.5l-96.5-96.5V434z"/>
			<path id="XMLID_186_" class="st130" d="M731.5,337.6V434l96.5-96.5H731.5z"/>
			<path id="XMLID_185_" class="st131" d="M731.5,434h96.5v-96.5L731.5,434z"/>
			<path id="XMLID_184_" class="st128" d="M345.7,434v96.5l96.5-96.5H345.7z"/>
			<path id="XMLID_183_" class="st106" d="M345.7,530.5h96.5V434L345.7,530.5z"/>
			<path id="XMLID_182_" class="st132" d="M442.1,434v96.5l96.5-96.5H442.1z"/>
			<path id="XMLID_181_" class="st102" d="M442.1,530.5h96.5V434L442.1,530.5z"/>
			<path id="XMLID_180_" class="st133" d="M538.6,434v96.5L635,434H538.6z"/>
			<path id="XMLID_179_" class="st134" d="M538.6,530.5H635V434L538.6,530.5z"/>
			<path id="XMLID_178_" class="st107" d="M635,434v96.5l96.5-96.5H635z"/>
			<path id="XMLID_177_" class="st135" d="M635,530.5h96.5V434L635,530.5z"/>
			<path id="XMLID_176_" class="st136" d="M731.5,434v96.5l96.5-96.5H731.5z"/>
			<path id="XMLID_175_" class="st137" d="M731.5,530.5h96.5V434L731.5,530.5z"/>
			<path id="XMLID_170_" class="st133" d="M827.9,434v96.5l96.5-96.5H827.9z"/>
			<path id="XMLID_169_" class="st138" d="M827.9,530.5h96.5V434L827.9,530.5z"/>
			<path id="XMLID_168_" class="st116" d="M924.4,434v96.5l96.5-96.5H924.4z"/>
			<path id="XMLID_167_" class="st139" d="M924.4,530.5h96.5V434L924.4,530.5z"/>
			<path id="XMLID_166_" class="st123" d="M442.1,627v-96.5h-96.5L442.1,627z"/>
			<path id="XMLID_164_" class="st140" d="M345.7,627h96.5l-96.5-96.5V627z"/>
			<path id="XMLID_163_" class="st128" d="M827.9,530.5V627l96.5-96.5H827.9z"/>
			<path id="XMLID_162_" class="st141" d="M827.9,627h96.5v-96.5L827.9,627z"/>
			<path id="XMLID_161_" class="st142" d="M924.4,530.5V627l96.5-96.5H924.4z"/>
			<path id="XMLID_160_" class="st141" d="M924.4,627h96.5v-96.5L924.4,627z"/>
		</g>
	</g>
	<g id="XMLID_187_">
		<defs>
			<path id="XMLID_271_" d="M536.1,97.7c-0.7-3.6-5.6-3.4-5.6-3.4s0.2-4.1-2.9-5.2c-3.1-1.1-5.6,3-5.6,3s-1.5-3.4-4.4-4.1
				c-3-0.7-4.6,1.4-4.6,1.4s-2.1-4.2-5-4.1c-2.9,0-5,2.4-5,2.4s-3.5,0-6.2-0.9c-2.6-0.9-3.5,2.5-7,7.4c-3.5,4.9-6.3,7.2-5.7,9.7
				c0.5,2.5,6.5,11.9,5.8,16.9c-0.6,5-4.2,6.5-6.6,9.9c-2.4,3.4-17.3,13.5-28.8,18.7c-11.5,5.2-18.8,11.8-18.8,11.8
				c0.2-1.8-21.1-13.3-35-22.6c-16.5-11-26.6-17.8-24.5-17.7c4.7,0.3,14.4,6.8,17.8,9.3c3.4,2.5,7.2,0.7,9.5-0.7
				c2.2-1.3,3.6-6.8,3.9-9.6c0.3-2.7,2.2-2.9,3.1-4.2c0.9-1.4,0.6-3.7,0.6-3.7s2.1-0.4,4-1.2c2-0.8,0.9-5.1,0.9-5.1s1.5,0,4.4,0.9
				c2.9,0.9,5,1.1,5.4-1.7c0.5-2.8-4.2-15.9-1.8-19c2.3-3.1,2.7-5,2.7-9.2c0-4.2,2.3-16.6,2.1-20c-0.2-2.7,1.6-5.6,1.6-5.6l2.2,3.7
				c0,0,0-4.2-0.1-6.1s-2-6-2-6l3.9-0.1c0,0-1.8-1.6-6.2-5.8c-4.4-4.2-6.3-2.5-6.3-2.5s-3.2-4.7-6.8-7.8c-3.6-3.1-7.6-5.6-7.6-5.6
				l0.9,4.4c0,0-1.5-1.3-3.7-3.5C402.5,19.7,394,17,394,17c0.7,0.9,1.8,4.3,1.8,4.3c-2.6-1.4,0.7-2-17.8,1.9
				c-18.5,3.9-22.3,13.8-25.3,21.6c-2.9,7.7-4.6,18.8-5.7,24.6c-0.6,3.3-3.6,7.7-6,11c-2.4-1-5-2-7.2-2.9c-6.3-2.5-8.6-6.6-16.8-5.4
				c0,0,0,0-0.1,0c-14-5.2-33.2-4.4-39.4-6c-7.3-1.9-26.5-7-48.7-11.4c-22.1-4.4-33.2-3.5-39.8,3.2c-6.6,6.6-16.4,9.5-30.6,26.2
				c-14.2,16.7-23.4,28.8-30.3,37.3c-7,8.5-16.7,12.3-20.9,19.9c-4.1,7.6-4.4,11.4-1.9,15.2c2.5,3.8,2.2,6,5.7,7.9
				c3.5,1.9,1.9,1.2,5.7,6c3.8,4.7,3.8-1.3,8.2,2.2c4.4,3.5,6,0.6,6,0.6s2.8,4.1,5.4,2.5c2.5-1.6,3.5-5.4,7.3-11.4
				c3.8-6,1.9-6.7,0.3-11.7c-1.6-5.1-3.2-11.1-3.2-11.1s-0.3-2.2,14.2-11.4c14.5-9.2,18.3-13.2,33.2-19.3
				c14.8-6,28.8-16.7,28.8-16.7s20.9,12.3,31.3,17.7c0.3,0.2,0.6,0.3,0.9,0.5c-6.4,9.1-16,28.3-21.5,48.5
				c-6.6,24.3-8.8,32.2-11.4,43.3c-2.5,11.1-9.2,19.3-17.1,25.9c-7.9,6.6-9.2,14.5-13.9,20.2c-0.4,0.5-0.8,1-1.2,1.5l0,0
				c-3.4,3.8-11.4,13-14.2,32.3c-2.8,19.3-0.6,31.3-0.9,34.4c-0.3,3.2-9.2,19.3-12.3,35.7c-3.2,16.4-7,36.7-9.5,42
				c-2.5,5.4-9.5,19.6-24,35.7c-14.5,16.1-22.1,23.7-33.2,50.2c-11.1,26.5-19.6,42.7-23.7,45.8c0,0-3.8,0.6-11.7,3.5
				c-7.9,2.8-15.2,5.1-19,8.2c-3.8,3.2,2.8,13.3,5.7,27.2c2.8,13.9,7,35.1,9.5,42.7c2.5,7.6,7,13,15.8,17.4
				c8.8,4.4,14.2,2.8,14.2,2.8s4.7-2.5,1.9-11.1c-2.8-8.5-5.4-16.7-5.4-22.7c0-6,9.5-25.6,10.1-32.2c0.6-6.6,8.5-22.1,14.2-35.4
				c5.7-13.3,47.7-61.9,56.2-73.6c8.5-11.7,24-20.9,31.6-32.2c7.6-11.4,22.1-33.8,31.6-50.2c6.3-10.9,16-22.2,23.9-36.5
				c8,0,16.1-1,24.1-3c31-7.9,74.6-24.6,74.6-24.6s-10.1,13.9-11.4,28.1c-1.3,14.2-0.3,37-0.9,49.6s-10.7,30.6-10.7,30.6
				s-7.6-1.3-16.4,6c-8.8,7.3-14.5,12-13.9,14.8s20.9,34.1,35.7,51.5c14.9,17.4,30,27.2,30,27.2s6-4.1,6.3-9.2
				c0.3-5.1-4.4-20.5-9.2-29.1c-4.7-8.5-1.9-24.6-4.4-31c-2.5-6.3-2.5-6.3-2.5-6.3s13.3-33.2,21.2-55c7.9-21.8,17.7-37.9,21.2-56.6
				c3.5-18.6,8.2-33.8,10.7-41.4c2.5-7.6,2.2-13.6-4.1-21.8s-9.5-12.3-17.1-12.3c-7.6,0-39.8-3.8-54-2.5c-11.2,1-18.3-0.8-25.7-0.8
				c5-5.5,18-28.4,23.8-36.8c6.3-9.2,20.2-29,25.9-37.2c1.9-2.8,4.1-5.3,6.3-7.8c9.9,4.8,22.4,9.9,31.9,14.4
				c19.2,9,44.7,16.2,50.2,16.6c5.5,0.4,10.9-1.2,16-6.1c5-4.9,34.8-32.2,46-45.3c11.2-13,19.3-14.2,23.9-23.6
				c4.5-9.4,8.5-17.4,8.5-17.4S536.8,101.3,536.1,97.7z"/>
		</defs>
		<clipPath id="XMLID_6_">
			<use xlink:href="#XMLID_271_"  style="overflow:visible;"/>
		</clipPath>
		<path id="XMLID_323_" class="st143" d="M536.1,97.7c-0.7-3.6-5.6-3.4-5.6-3.4s0.2-4.1-2.9-5.2c-3.1-1.1-5.6,3-5.6,3
			s-1.5-3.4-4.4-4.1c-3-0.7-4.6,1.4-4.6,1.4s-2.1-4.2-5-4.1c-2.9,0-5,2.4-5,2.4s-3.5,0-6.2-0.9c-2.6-0.9-3.5,2.5-7,7.4
			c-3.5,4.9-6.3,7.2-5.7,9.7c0.5,2.5,6.5,11.9,5.8,16.9c-0.6,5-4.2,6.5-6.6,9.9c-2.4,3.4-17.3,13.5-28.8,18.7
			c-11.5,5.2-18.8,11.8-18.8,11.8s-18.6-12.2-35-19.1c-7.5-3.1-13.9-11.3-18.6-19.2c4.5,2.2,9.7,5.7,12,7.4c3.4,2.5,7.2,0.7,9.5-0.7
			c2.2-1.3,3.6-6.8,3.9-9.6c0.3-2.7,2.2-2.9,3.1-4.2c0.9-1.4,0.6-3.7,0.6-3.7s2.1-0.4,4-1.2c2-0.8,0.9-5.1,0.9-5.1s1.5,0,4.4,0.9
			c2.9,0.9,5,1.1,5.4-1.7c0.5-2.8-4.2-15.9-1.8-19c2.3-3.1,2.7-5,2.7-9.2c0-4.2,2.3-16.6,2.1-20c-0.2-2.7,1.6-5.6,1.6-5.6l2.2,3.7
			c0,0,0-4.2-0.1-6.1s-2-6-2-6l3.9-0.1c0,0-1.8-1.6-6.2-5.8c-4.4-4.2-6.3-2.5-6.3-2.5s-3.2-4.7-6.8-7.8c-3.6-3.1-7.6-5.6-7.6-5.6
			l0.9,4.4c0,0-1.5-1.3-3.7-3.5C402.5,19.7,394,17,394,17c0.7,0.9,1.8,4.3,1.8,4.3c-2.6-1.4,0.7-2-17.8,1.9
			c-18.5,3.9-22.3,13.8-25.3,21.6c-2.9,7.7-4.6,18.8-5.7,24.6c-0.6,3.3-3.6,7.7-6,11c-2.4-1-5-2-7.2-2.9c-6.3-2.5-8.6-6.6-16.8-5.4
			c0,0,0,0-0.1,0c-14-5.2-33.2-4.4-39.4-6c-7.3-1.9-26.5-7-48.7-11.4c-22.1-4.4-33.2-3.5-39.8,3.2c-6.6,6.6-16.4,9.5-30.6,26.2
			c-14.2,16.7-23.4,28.8-30.3,37.3c-7,8.5-16.7,12.3-20.9,19.9c-4.1,7.6-4.4,11.4-1.9,15.2c2.5,3.8,2.2,6,5.7,7.9
			c3.5,1.9,1.9,1.2,5.7,6c3.8,4.7,3.8-1.3,8.2,2.2c4.4,3.5,6,0.6,6,0.6s2.8,4.1,5.4,2.5c2.5-1.6,3.5-5.4,7.3-11.4
			c3.8-6,1.9-6.7,0.3-11.7c-1.6-5.1-3.2-11.1-3.2-11.1s-0.3-2.2,14.2-11.4c14.5-9.2,18.3-13.2,33.2-19.3c14.8-6,28.8-16.7,28.8-16.7
			s20.9,12.3,31.3,17.7c0.3,0.2,0.6,0.3,0.9,0.5c-6.4,9.1-16,28.3-21.5,48.5c-6.6,24.3-8.8,32.2-11.4,43.3
			c-2.5,11.1-9.2,19.3-17.1,25.9c-7.9,6.6-9.2,14.5-13.9,20.2c-0.4,0.5-0.8,1-1.2,1.5l0,0c-3.4,3.8-11.4,13-14.2,32.3
			c-2.8,19.3-0.6,31.3-0.9,34.4c-0.3,3.2-9.2,19.3-12.3,35.7c-3.2,16.4-7,36.7-9.5,42c-2.5,5.4-9.5,19.6-24,35.7
			c-14.5,16.1-22.1,23.7-33.2,50.2c-11.1,26.5-19.6,42.7-23.7,45.8c0,0-3.8,0.6-11.7,3.5c-7.9,2.8-15.2,5.1-19,8.2
			c-3.8,3.2,2.8,13.3,5.7,27.2c2.8,13.9,7,35.1,9.5,42.7c2.5,7.6,7,13,15.8,17.4c8.8,4.4,14.2,2.8,14.2,2.8s4.7-2.5,1.9-11.1
			c-2.8-8.5-5.4-16.7-5.4-22.7c0-6,9.5-25.6,10.1-32.2c0.6-6.6,8.5-22.1,14.2-35.4c5.7-13.3,47.7-61.9,56.2-73.6
			c8.5-11.7,24-20.9,31.6-32.2c7.6-11.4,22.1-33.8,31.6-50.2c6.3-10.9,16-22.2,23.9-36.5c8,0,16.1-1,24.1-3
			c31-7.9,74.6-24.6,74.6-24.6s-10.1,13.9-11.4,28.1c-1.3,14.2-0.3,37-0.9,49.6s-10.7,30.6-10.7,30.6s-7.6-1.3-16.4,6
			c-8.8,7.3-14.5,12-13.9,14.8s20.9,34.1,35.7,51.5c14.9,17.4,30,27.2,30,27.2s6-4.1,6.3-9.2c0.3-5.1-4.4-20.5-9.2-29.1
			c-4.7-8.5-1.9-24.6-4.4-31c-2.5-6.3-2.5-6.3-2.5-6.3s13.3-33.2,21.2-55c7.9-21.8,17.7-37.9,21.2-56.6c3.5-18.6,8.2-33.8,10.7-41.4
			c2.5-7.6,2.2-13.6-4.1-21.8s-9.5-12.3-17.1-12.3c-7.6,0-39.8-3.8-54-2.5c-11.2,1-18.3-0.8-25.7-0.8c5-5.5,18-28.4,23.8-36.8
			c6.3-9.2,20.2-29,25.9-37.2c1.9-2.8,4.1-5.3,6.3-7.8c9.9,4.8,22.4,9.9,31.9,14.4c19.2,9,44.7,16.2,50.2,16.6
			c5.5,0.4,10.9-1.2,16-6.1c5-4.9,34.8-32.2,46-45.3c11.2-13,19.3-14.2,23.9-23.6c4.5-9.4,8.5-17.4,8.5-17.4S536.8,101.3,536.1,97.7
			z M276.2,253.1c1.6-0.3,3.1-0.5,4.6-0.6c-1.6,0.3-3.4,0.5-5.2,0.8C275.8,253.2,276,253.2,276.2,253.1z"/>
		<path id="XMLID_188_" class="st144" d="M312.7,415.5c5.9,0.8,13.5,11.4,20.6,19c7.2,7.6,9.7,3.8,18.1,8.4"/>
		<path id="XMLID_191_" class="st144" d="M292.4,427.7c6.3,4.6,16,21.9,22.3,33.3c6.3,11.4,17.3,22.7,30.8,36.2
			c13.5,13.5,20.2,16,20.2,16"/>
		<path id="XMLID_194_" class="st144" d="M61.6,525c4.5,2.9,12.6,16,14.7,25.7c2.1,9.7,10.5,2.5,16,8.8c5.5,6.3,5.5,13.9,5.5,13.9"
			/>
		<path id="XMLID_190_" class="st144" d="M40.1,530.9c2.1,2.1,3.8,16.9,7.6,31.2c3.8,14.3,3.8,22.3,5.9,33.7
			c2.1,11.4,5.1,19.4,14.3,24.4c9.3,5.1,22.7,6.3,22.7,6.3"/>
		<path id="XMLID_266_" class="st144" d="M147.1,362.9c9.3,11.8,39.2,20.2,51.4,21.5c12.2,1.3,17.3,1.3,17.3,1.3"/>
		<path id="XMLID_270_" class="st144" d="M318.1,241.9c-8.8,5.5-9.7,7.6-21.1,9.3c-11.4,1.7-26.5,2.9-35.4,5.9
			c-8.8,2.9-31.2,15.2-45.9,16.9c-14.7,1.7-29.9-2.1-33.7-9.7c-3.8-7.6-11.8-10.1-11.8-10.1"/>
		<path id="XMLID_268_" class="st144" d="M159.9,307.5c5.1,11.4,22.7,21.5,52.4,27.2s46.8,3.8,46.8,3.8"/>
		<path id="XMLID_272_" class="st144" d="M248.1,111.9c6.4,2.4,31.7,21,52.8,24.3c21.1,3.4,41.1-32.9,23.1-60.7"/>
		<path id="XMLID_274_" class="st144" d="M333.7,68c7.2,12.4,14.3,16.9,11.8,43.8s10.9,30.4,16.9,21.9c6-8.5,13.8-12.6,13.8-12.6"/>
		<path id="XMLID_275_" class="st144" d="M354.2,168.2c9.2-9.3,24.4-30.8,27.5-45.3"/>
		<g id="XMLID_158_" class="st145">
			<path id="XMLID_443_" class="st146" d="M608.9,114.1V11.4H506.3L608.9,114.1z"/>
			<path id="XMLID_442_" class="st147" d="M506.3,114.1h102.7L506.3,11.4V114.1z"/>
			<path id="XMLID_441_" class="st148" d="M506.3,114.1V11.4H403.6L506.3,114.1z"/>
			<path id="XMLID_440_" class="st149" d="M403.6,114.1h102.7L403.6,11.4V114.1z"/>
			<path id="XMLID_439_" class="st150" d="M403.6,114.1V11.4H300.9L403.6,114.1z"/>
			<path id="XMLID_438_" class="st151" d="M300.9,114.1h102.7L300.9,11.4V114.1z"/>
			<path id="XMLID_437_" class="st152" d="M300.9,114.1V11.4H198.3L300.9,114.1z"/>
			<path id="XMLID_436_" class="st153" d="M198.3,114.1h102.7L198.3,11.4V114.1z"/>
			<path id="XMLID_435_" class="st154" d="M198.3,114.1V11.4H95.6L198.3,114.1z"/>
			<path id="XMLID_434_" class="st155" d="M95.6,114.1h102.7L95.6,11.4V114.1z"/>
			<path id="XMLID_427_" class="st149" d="M506.3,216.8V114.1H403.6L506.3,216.8z"/>
			<path id="XMLID_426_" class="st156" d="M403.6,216.8h102.7L403.6,114.1V216.8z"/>
			<path id="XMLID_419_" class="st155" d="M95.6,114.1v102.7l102.7-102.7H95.6z"/>
			<path id="XMLID_418_" class="st157" d="M95.6,216.8h102.7V114.1L95.6,216.8z"/>
			<path id="XMLID_417_" class="st158" d="M403.6,216.8V114.1H300.9L403.6,216.8z"/>
			<path id="XMLID_416_" class="st159" d="M300.9,216.8h102.7L300.9,114.1V216.8z"/>
			<path id="XMLID_415_" class="st160" d="M198.3,114.1v102.7l102.7-102.7H198.3z"/>
			<path id="XMLID_414_" class="st161" d="M205.6,208.4h102.7V105.7L205.6,208.4z"/>
			<path id="XMLID_413_" class="st161" d="M506.3,114.1v102.7l102.7-102.7H506.3z"/>
			<path id="XMLID_395_" class="st162" d="M506.3,216.8h102.7V114.1L506.3,216.8z"/>
			<path id="XMLID_388_" class="st163" d="M95.6,216.8v102.7l102.7-102.7H95.6z"/>
			<path id="XMLID_387_" class="st164" d="M95.6,319.5h102.7V216.8L95.6,319.5z"/>
			<path id="XMLID_386_" class="st165" d="M198.3,216.8v102.7l102.7-102.7H198.3z"/>
			<path id="XMLID_385_" class="st166" d="M198.3,319.5h102.7V216.8L198.3,319.5z"/>
			<path id="XMLID_384_" class="st146" d="M300.9,216.8v102.7l102.7-102.7H300.9z"/>
			<path id="XMLID_383_" class="st167" d="M300.9,319.5h102.7V216.8L300.9,319.5z"/>
			<path id="XMLID_368_" class="st158" d="M300.9,319.5v102.7l102.7-102.7H300.9z"/>
			<path id="XMLID_367_" class="st168" d="M300.9,422.1h102.7V319.5L300.9,422.1z"/>
			<path id="XMLID_362_" class="st169" d="M95.6,319.5v102.7l102.7-102.7H95.6z"/>
			<path id="XMLID_361_" class="st170" d="M95.6,422.1h102.7V319.5L95.6,422.1z"/>
			<path id="XMLID_360_" class="st169" d="M300.9,422.1V319.5H198.3L300.9,422.1z"/>
			<path id="XMLID_359_" class="st171" d="M198.3,422.1h102.7L198.3,319.5V422.1z"/>
			<path id="XMLID_354_" class="st172" d="M-7.1,422.1v102.7L95.6,422.1H-7.1z"/>
			<path id="XMLID_353_" class="st173" d="M-7.1,524.8H95.6V422.1L-7.1,524.8z"/>
			<path id="XMLID_352_" class="st174" d="M95.6,422.1v102.7l102.7-102.7H95.6z"/>
			<path id="XMLID_351_" class="st175" d="M95.6,524.8h102.7V422.1L95.6,524.8z"/>
			<path id="XMLID_350_" class="st167" d="M198.3,422.1v102.7l102.7-102.7H198.3z"/>
			<path id="XMLID_341_" class="st176" d="M198.3,524.8h102.7V422.1L198.3,524.8z"/>
			<path id="XMLID_338_" class="st152" d="M300.9,422.1v102.7l102.7-102.7H300.9z"/>
			<path id="XMLID_337_" class="st177" d="M300.9,524.8h102.7V422.1L300.9,524.8z"/>
			<path id="XMLID_329_" class="st163" d="M-7.1,524.8v102.7L95.6,524.8H-7.1z"/>
			<path id="XMLID_328_" class="st178" d="M-7.1,627.5H95.6V524.8L-7.1,627.5z"/>
			<path id="XMLID_327_" class="st150" d="M95.6,524.8v102.7l102.7-102.7H95.6z"/>
			<path id="XMLID_326_" class="st172" d="M95.6,627.5h102.7V524.8L95.6,627.5z"/>
		</g>
	</g>
</g>
</svg>
