<?xml version="1.0" encoding="utf-8"?>
<!-- Generator: Adobe Illustrator 23.0.1, SVG Export Plug-In . SVG Version: 6.00 Build 0)  -->
<svg version="1.1" id="Layer_1" xmlns="http://www.w3.org/2000/svg" xmlns:xlink="http://www.w3.org/1999/xlink" x="0px" y="0px"
	 viewBox="0 0 250 250" style="enable-background:new 0 0 250 250;" xml:space="preserve">
<style type="text/css">
	.st0{fill-rule:evenodd;clip-rule:evenodd;fill:#FFFFFF;}
	.st1{fill:#FFFFFF;}
</style>
<g>
	
		<image style="overflow:visible;opacity:0.75;" width="276" height="270" xlink:href="15C9B940.png"  transform="matrix(1 0 0 1 -6 -5)">
	</image>
	<g>
		<g>
			<path class="st0" d="M125,3.1c-67.9,0-123,55.1-123,123c0,54.3,35.2,100.4,84.1,116.7c6.1,1.1,8.4-2.7,8.4-5.9
				c0-2.9-0.1-12.6-0.2-22.9C60.2,221.4,53,199.4,53,199.4c-5.6-14.2-13.7-18-13.7-18c-11.2-7.6,0.8-7.5,0.8-7.5
				c12.3,0.9,18.9,12.7,18.9,12.7c11,18.8,28.8,13.4,35.8,10.2c1.1-7.9,4.3-13.4,7.8-16.4c-27.3-3.1-56-13.7-56-60.8
				c0-13.4,4.8-24.4,12.7-33C58,83.5,53.7,71,60.4,54.1c0,0,10.3-3.3,33.8,12.6c9.8-2.7,20.3-4.1,30.8-4.1c10.5,0,21,1.4,30.8,4.1
				c23.5-15.9,33.8-12.6,33.8-12.6c6.7,16.9,2.5,29.4,1.2,32.5c7.9,8.6,12.7,19.6,12.7,33c0,47.2-28.8,57.6-56.2,60.7
				c4.4,3.8,8.3,11.3,8.3,22.8c0,16.5-0.1,29.7-0.1,33.7c0,3.3,2.2,7.1,8.4,5.9c48.8-16.3,84-62.4,84-116.7
				C248,58.1,192.9,3.1,125,3.1z"/>
			<path class="st1" d="M48.6,179.6c-0.3,0.6-1.2,0.8-2.1,0.4c-0.9-0.4-1.4-1.2-1.1-1.8c0.3-0.6,1.2-0.8,2.1-0.4
				C48.4,178.2,48.9,179,48.6,179.6L48.6,179.6z M47.1,178.5"/>
			<path class="st1" d="M53.6,185.2c-0.6,0.5-1.7,0.3-2.5-0.6c-0.8-0.9-1-2-0.4-2.6c0.6-0.5,1.7-0.3,2.5,0.6
				C54.1,183.5,54.2,184.6,53.6,185.2L53.6,185.2z M52.4,183.9"/>
			<path class="st1" d="M58.5,192.3c-0.8,0.5-2,0-2.7-1.1c-0.8-1.1-0.8-2.4,0-2.9c0.8-0.5,2-0.1,2.7,1
				C59.2,190.4,59.2,191.7,58.5,192.3L58.5,192.3z M58.5,192.3"/>
			<path class="st1" d="M65.1,199.1c-0.7,0.7-2.1,0.5-3.2-0.5c-1.1-1-1.4-2.4-0.7-3.1c0.7-0.7,2.1-0.5,3.2,0.5
				C65.5,197,65.8,198.4,65.1,199.1L65.1,199.1z M65.1,199.1"/>
			<path class="st1" d="M74.3,203.1c-0.3,1-1.7,1.4-3.1,1c-1.4-0.4-2.3-1.5-2-2.5c0.3-1,1.7-1.4,3.1-1
				C73.6,201,74.6,202.1,74.3,203.1L74.3,203.1z M74.3,203.1"/>
			<path class="st1" d="M84.3,203.8c0,1-1.1,1.9-2.6,1.9c-1.5,0-2.7-0.8-2.7-1.8c0-1,1.2-1.9,2.6-1.9
				C83.1,202,84.3,202.8,84.3,203.8L84.3,203.8z M84.3,203.8"/>
			<path class="st1" d="M93.7,202.2c0.2,1-0.8,2-2.3,2.3c-1.4,0.3-2.7-0.3-2.9-1.3c-0.2-1,0.9-2,2.3-2.3
				C92.2,200.6,93.5,201.2,93.7,202.2L93.7,202.2z M93.7,202.2"/>
		</g>
	</g>
</g>
</svg>
